<?xml version="1.0" encoding="utf-8" standalone="no"?>
<!DOCTYPE svg PUBLIC "-//W3C//DTD SVG 1.1//EN"
  "http://www.w3.org/Graphics/SVG/1.1/DTD/svg11.dtd">
<svg xmlns:xlink="http://www.w3.org/1999/xlink" width="709.360921pt" height="496.798125pt" viewBox="0 0 709.360921 496.798125" xmlns="http://www.w3.org/2000/svg" version="1.1">
 <metadata>
  <rdf:RDF xmlns:dc="http://purl.org/dc/elements/1.1/" xmlns:cc="http://creativecommons.org/ns#" xmlns:rdf="http://www.w3.org/1999/02/22-rdf-syntax-ns#">
   <cc:Work>
    <dc:type rdf:resource="http://purl.org/dc/dcmitype/StillImage"/>
    <dc:date>2025-11-29T12:02:22.254067</dc:date>
    <dc:format>image/svg+xml</dc:format>
    <dc:creator>
     <cc:Agent>
      <dc:title>Matplotlib v3.8.2, https://matplotlib.org/</dc:title>
     </cc:Agent>
    </dc:creator>
   </cc:Work>
  </rdf:RDF>
 </metadata>
 <defs>
  <style type="text/css">*{stroke-linejoin: round; stroke-linecap: butt}</style>
 </defs>
 <g id="figure_1">
  <g id="patch_1">
   <path d="M 0 496.798125 
L 709.360921 496.798125 
L 709.360921 0 
L 0 0 
z
" style="fill: #ffffff"/>
  </g>
  <g id="axes_1">
   <g id="patch_2">
    <path d="M 7.2 489.598125 
L 408.500385 489.598125 
L 408.500385 160.258516 
L 7.2 160.258516 
z
" clip-path="url(#p114b675969)" style="fill: #b7d4ea; opacity: 0.8"/>
   </g>
   <g id="patch_3">
    <path d="M 7.2 160.258516 
L 408.500385 160.258516 
L 408.500385 22.318125 
L 7.2 22.318125 
z
" clip-path="url(#p114b675969)" style="fill: #a9cfe5; opacity: 0.8"/>
   </g>
   <g id="patch_4">
    <path d="M 408.500385 489.598125 
L 566.57852 489.598125 
L 566.57852 306.774115 
L 408.500385 306.774115 
z
" clip-path="url(#p114b675969)" style="fill: #9ac8e0; opacity: 0.8"/>
   </g>
   <g id="patch_5">
    <path d="M 566.57852 489.598125 
L 702.160921 489.598125 
L 702.160921 306.774115 
L 566.57852 306.774115 
z
" clip-path="url(#p114b675969)" style="fill: #89bedc; opacity: 0.8"/>
   </g>
   <g id="patch_6">
    <path d="M 408.500385 306.774115 
L 597.637679 306.774115 
L 597.637679 183.945148 
L 408.500385 183.945148 
z
" clip-path="url(#p114b675969)" style="fill: #77b5d9; opacity: 0.8"/>
   </g>
   <g id="patch_7">
    <path d="M 597.637679 306.774115 
L 702.160921 306.774115 
L 702.160921 183.945148 
L 597.637679 183.945148 
z
" clip-path="url(#p114b675969)" style="fill: #66abd4; opacity: 0.8"/>
   </g>
   <g id="patch_8">
    <path d="M 408.500385 183.945148 
L 540.200602 183.945148 
L 540.200602 97.012598 
L 408.500385 97.012598 
z
" clip-path="url(#p114b675969)" style="fill: #58a1cf; opacity: 0.8"/>
   </g>
   <g id="patch_9">
    <path d="M 408.500385 97.012598 
L 540.200602 97.012598 
L 540.200602 22.318125 
L 408.500385 22.318125 
z
" clip-path="url(#p114b675969)" style="fill: #4a98c9; opacity: 0.8"/>
   </g>
   <g id="patch_10">
    <path d="M 540.200602 183.945148 
L 702.160921 183.945148 
L 702.160921 128.696845 
L 540.200602 128.696845 
z
" clip-path="url(#p114b675969)" style="fill: #3d8dc4; opacity: 0.8"/>
   </g>
   <g id="patch_11">
    <path d="M 540.200602 128.696845 
L 613.343972 128.696845 
L 613.343972 64.109765 
L 540.200602 64.109765 
z
" clip-path="url(#p114b675969)" style="fill: #3282be; opacity: 0.8"/>
   </g>
   <g id="patch_12">
    <path d="M 540.200602 64.109765 
L 613.343972 64.109765 
L 613.343972 22.318125 
L 540.200602 22.318125 
z
" clip-path="url(#p114b675969)" style="fill: #2676b8; opacity: 0.8"/>
   </g>
   <g id="patch_13">
    <path d="M 613.343972 128.696845 
L 702.160921 128.696845 
L 702.160921 97.408986 
L 613.343972 97.408986 
z
" clip-path="url(#p114b675969)" style="fill: #1c6bb0; opacity: 0.8"/>
   </g>
   <g id="patch_14">
    <path d="M 613.343972 97.408986 
L 659.726156 97.408986 
L 659.726156 41.09084 
L 613.343972 41.09084 
z
" clip-path="url(#p114b675969)" style="fill: #1460a8; opacity: 0.8"/>
   </g>
   <g id="patch_15">
    <path d="M 659.726156 97.408986 
L 702.160921 97.408986 
L 702.160921 41.09084 
L 659.726156 41.09084 
z
" clip-path="url(#p114b675969)" style="fill: #0b559f; opacity: 0.8"/>
   </g>
   <g id="patch_16">
    <path d="M 613.343972 41.09084 
L 702.160921 41.09084 
L 702.160921 22.318125 
L 613.343972 22.318125 
z
" clip-path="url(#p114b675969)" style="fill: #084a91; opacity: 0.8"/>
   </g>
   <g id="text_1">
    <!-- Math -->
    <g transform="translate(195.85277 322.372742) scale(0.09 -0.09)">
     <defs>
      <path id="DejaVuSerif-4d" d="M 353 0 
L 353 331 
L 947 331 
L 947 4331 
L 319 4331 
L 319 4666 
L 1678 4666 
L 3316 1344 
L 4953 4666 
L 6228 4666 
L 6228 4331 
L 5606 4331 
L 5606 331 
L 6203 331 
L 6203 0 
L 4378 0 
L 4378 331 
L 4972 331 
L 4972 3938 
L 3372 684 
L 2931 684 
L 1331 3938 
L 1331 331 
L 1925 331 
L 1925 0 
L 353 0 
z
" transform="scale(0.015625)"/>
      <path id="DejaVuSerif-61" d="M 2547 1044 
L 2547 1747 
L 1806 1747 
Q 1378 1747 1168 1562 
Q 959 1378 959 997 
Q 959 650 1171 447 
Q 1384 244 1747 244 
Q 2106 244 2326 466 
Q 2547 688 2547 1044 
z
M 3122 2075 
L 3122 331 
L 3634 331 
L 3634 0 
L 2547 0 
L 2547 359 
Q 2356 128 2106 18 
Q 1856 -91 1522 -91 
Q 969 -91 644 203 
Q 319 497 319 997 
Q 319 1513 691 1797 
Q 1063 2081 1741 2081 
L 2547 2081 
L 2547 2309 
Q 2547 2688 2317 2895 
Q 2088 3103 1672 3103 
Q 1328 3103 1125 2947 
Q 922 2791 872 2484 
L 575 2484 
L 575 3156 
Q 875 3284 1158 3348 
Q 1441 3413 1709 3413 
Q 2400 3413 2761 3070 
Q 3122 2728 3122 2075 
z
" transform="scale(0.015625)"/>
      <path id="DejaVuSerif-74" d="M 691 2988 
L 184 2988 
L 184 3322 
L 691 3322 
L 691 4353 
L 1269 4353 
L 1269 3322 
L 2350 3322 
L 2350 2988 
L 1269 2988 
L 1269 878 
Q 1269 456 1350 337 
Q 1431 219 1650 219 
Q 1875 219 1978 351 
Q 2081 484 2088 781 
L 2522 781 
Q 2497 328 2275 118 
Q 2053 -91 1600 -91 
Q 1103 -91 897 129 
Q 691 350 691 878 
L 691 2988 
z
" transform="scale(0.015625)"/>
      <path id="DejaVuSerif-68" d="M 263 0 
L 263 331 
L 781 331 
L 781 4531 
L 231 4531 
L 231 4863 
L 1356 4863 
L 1356 2731 
Q 1516 3069 1770 3241 
Q 2025 3413 2363 3413 
Q 2913 3413 3172 3097 
Q 3431 2781 3431 2113 
L 3431 331 
L 3944 331 
L 3944 0 
L 2356 0 
L 2356 331 
L 2853 331 
L 2853 1931 
Q 2853 2541 2704 2764 
Q 2556 2988 2175 2988 
Q 1775 2988 1565 2697 
Q 1356 2406 1356 1850 
L 1356 331 
L 1856 331 
L 1856 0 
L 263 0 
z
" transform="scale(0.015625)"/>
     </defs>
     <use xlink:href="#DejaVuSerif-4d"/>
     <use xlink:href="#DejaVuSerif-61" x="102.392578"/>
     <use xlink:href="#DejaVuSerif-74" x="162.011719"/>
     <use xlink:href="#DejaVuSerif-68" x="202.197266"/>
    </g>
    <!-- (2378) -->
    <g transform="translate(192.886286 332.450774) scale(0.09 -0.09)">
     <defs>
      <path id="DejaVuSerif-28" d="M 2041 -997 
Q 1281 -656 893 83 
Q 506 822 506 1931 
Q 506 3044 893 3783 
Q 1281 4522 2041 4863 
L 2041 4556 
Q 1559 4225 1350 3623 
Q 1141 3022 1141 1931 
Q 1141 844 1350 242 
Q 1559 -359 2041 -691 
L 2041 -997 
z
" transform="scale(0.015625)"/>
      <path id="DejaVuSerif-32" d="M 819 3553 
L 469 3553 
L 469 4384 
Q 803 4563 1142 4656 
Q 1481 4750 1806 4750 
Q 2534 4750 2956 4397 
Q 3378 4044 3378 3438 
Q 3378 2753 2422 1800 
Q 2347 1728 2309 1691 
L 1131 513 
L 3078 513 
L 3078 1088 
L 3444 1088 
L 3444 0 
L 434 0 
L 434 341 
L 1850 1753 
Q 2319 2222 2519 2614 
Q 2719 3006 2719 3438 
Q 2719 3909 2473 4175 
Q 2228 4441 1797 4441 
Q 1350 4441 1106 4219 
Q 863 3997 819 3553 
z
" transform="scale(0.015625)"/>
      <path id="DejaVuSerif-33" d="M 622 4469 
Q 988 4606 1323 4678 
Q 1659 4750 1953 4750 
Q 2638 4750 3022 4454 
Q 3406 4159 3406 3634 
Q 3406 3213 3140 2930 
Q 2875 2647 2388 2547 
Q 2963 2466 3280 2130 
Q 3597 1794 3597 1259 
Q 3597 606 3158 257 
Q 2719 -91 1894 -91 
Q 1528 -91 1179 -12 
Q 831 66 488 225 
L 488 1131 
L 838 1131 
Q 869 681 1141 450 
Q 1413 219 1906 219 
Q 2384 219 2661 495 
Q 2938 772 2938 1253 
Q 2938 1803 2653 2086 
Q 2369 2369 1819 2369 
L 1522 2369 
L 1522 2688 
L 1678 2688 
Q 2225 2688 2498 2914 
Q 2772 3141 2772 3597 
Q 2772 4006 2547 4223 
Q 2322 4441 1900 4441 
Q 1478 4441 1245 4241 
Q 1013 4041 972 3647 
L 622 3647 
L 622 4469 
z
" transform="scale(0.015625)"/>
      <path id="DejaVuSerif-37" d="M 3609 4347 
L 1784 0 
L 1319 0 
L 3059 4153 
L 903 4153 
L 903 3578 
L 538 3578 
L 538 4666 
L 3609 4666 
L 3609 4347 
z
" transform="scale(0.015625)"/>
      <path id="DejaVuSerif-38" d="M 2981 1275 
Q 2981 1775 2732 2051 
Q 2484 2328 2034 2328 
Q 1584 2328 1336 2051 
Q 1088 1775 1088 1275 
Q 1088 772 1336 495 
Q 1584 219 2034 219 
Q 2484 219 2732 495 
Q 2981 772 2981 1275 
z
M 2853 3541 
Q 2853 3966 2637 4203 
Q 2422 4441 2034 4441 
Q 1650 4441 1433 4203 
Q 1216 3966 1216 3541 
Q 1216 3113 1433 2875 
Q 1650 2638 2034 2638 
Q 2422 2638 2637 2875 
Q 2853 3113 2853 3541 
z
M 2516 2484 
Q 3047 2413 3344 2092 
Q 3641 1772 3641 1275 
Q 3641 619 3225 264 
Q 2809 -91 2034 -91 
Q 1263 -91 845 264 
Q 428 619 428 1275 
Q 428 1772 725 2092 
Q 1022 2413 1556 2484 
Q 1084 2569 832 2842 
Q 581 3116 581 3541 
Q 581 4103 968 4426 
Q 1356 4750 2034 4750 
Q 2713 4750 3100 4426 
Q 3488 4103 3488 3541 
Q 3488 3116 3236 2842 
Q 2984 2569 2516 2484 
z
" transform="scale(0.015625)"/>
      <path id="DejaVuSerif-29" d="M 453 -997 
L 453 -691 
Q 934 -359 1145 242 
Q 1356 844 1356 1931 
Q 1356 3022 1145 3623 
Q 934 4225 453 4556 
L 453 4863 
Q 1216 4522 1603 3783 
Q 1991 3044 1991 1931 
Q 1991 822 1603 83 
Q 1216 -656 453 -997 
z
" transform="scale(0.015625)"/>
     </defs>
     <use xlink:href="#DejaVuSerif-28"/>
     <use xlink:href="#DejaVuSerif-32" x="39.013672"/>
     <use xlink:href="#DejaVuSerif-33" x="102.636719"/>
     <use xlink:href="#DejaVuSerif-37" x="166.259766"/>
     <use xlink:href="#DejaVuSerif-38" x="229.882812"/>
     <use xlink:href="#DejaVuSerif-29" x="293.505859"/>
    </g>
   </g>
   <g id="text_2">
    <!-- Uncategorized -->
    <g transform="translate(174.389177 88.668758) scale(0.09 -0.09)">
     <defs>
      <path id="DejaVuSerif-55" d="M 897 4331 
L 300 4331 
L 300 4666 
L 2125 4666 
L 2125 4331 
L 1528 4331 
L 1528 1919 
Q 1528 1025 1820 672 
Q 2113 319 2828 319 
Q 3544 319 3836 672 
Q 4128 1025 4128 1919 
L 4128 4331 
L 3531 4331 
L 3531 4666 
L 5106 4666 
L 5106 4331 
L 4513 4331 
L 4513 1856 
Q 4513 791 4103 350 
Q 3694 -91 2713 -91 
Q 1731 -91 1314 353 
Q 897 797 897 1856 
L 897 4331 
z
" transform="scale(0.015625)"/>
      <path id="DejaVuSerif-6e" d="M 263 0 
L 263 331 
L 781 331 
L 781 2988 
L 231 2988 
L 231 3322 
L 1356 3322 
L 1356 2731 
Q 1516 3069 1770 3241 
Q 2025 3413 2363 3413 
Q 2913 3413 3172 3097 
Q 3431 2781 3431 2113 
L 3431 331 
L 3944 331 
L 3944 0 
L 2356 0 
L 2356 331 
L 2853 331 
L 2853 1931 
Q 2853 2541 2703 2767 
Q 2553 2994 2175 2994 
Q 1775 2994 1565 2701 
Q 1356 2409 1356 1850 
L 1356 331 
L 1856 331 
L 1856 0 
L 263 0 
z
" transform="scale(0.015625)"/>
      <path id="DejaVuSerif-63" d="M 3291 997 
Q 3169 466 2822 187 
Q 2475 -91 1925 -91 
Q 1200 -91 759 389 
Q 319 869 319 1663 
Q 319 2459 759 2936 
Q 1200 3413 1925 3413 
Q 2241 3413 2553 3339 
Q 2866 3266 3181 3116 
L 3181 2266 
L 2847 2266 
Q 2781 2703 2561 2903 
Q 2341 3103 1931 3103 
Q 1466 3103 1228 2742 
Q 991 2381 991 1663 
Q 991 944 1227 581 
Q 1463 219 1931 219 
Q 2303 219 2525 412 
Q 2747 606 2828 997 
L 3291 997 
z
" transform="scale(0.015625)"/>
      <path id="DejaVuSerif-65" d="M 3469 1600 
L 991 1600 
L 991 1575 
Q 991 903 1244 561 
Q 1497 219 1991 219 
Q 2369 219 2611 417 
Q 2853 616 2950 1006 
L 3413 1006 
Q 3275 459 2904 184 
Q 2534 -91 1931 -91 
Q 1203 -91 761 389 
Q 319 869 319 1663 
Q 319 2450 753 2931 
Q 1188 3413 1894 3413 
Q 2647 3413 3050 2948 
Q 3453 2484 3469 1600 
z
M 2791 1931 
Q 2772 2513 2545 2808 
Q 2319 3103 1894 3103 
Q 1497 3103 1269 2806 
Q 1041 2509 991 1931 
L 2791 1931 
z
" transform="scale(0.015625)"/>
      <path id="DejaVuSerif-67" d="M 3359 2988 
L 3359 72 
Q 3359 -644 2965 -1033 
Q 2572 -1422 1844 -1422 
Q 1516 -1422 1216 -1362 
Q 916 -1303 641 -1184 
L 641 -488 
L 941 -488 
Q 997 -813 1206 -963 
Q 1416 -1113 1806 -1113 
Q 2313 -1113 2548 -827 
Q 2784 -541 2784 72 
L 2784 519 
Q 2616 206 2355 57 
Q 2094 -91 1709 -91 
Q 1097 -91 708 395 
Q 319 881 319 1663 
Q 319 2444 706 2928 
Q 1094 3413 1709 3413 
Q 2094 3413 2355 3264 
Q 2616 3116 2784 2803 
L 2784 3322 
L 3909 3322 
L 3909 2988 
L 3359 2988 
z
M 2784 1825 
Q 2784 2422 2554 2737 
Q 2325 3053 1888 3053 
Q 1444 3053 1217 2703 
Q 991 2353 991 1663 
Q 991 975 1217 622 
Q 1444 269 1888 269 
Q 2325 269 2554 583 
Q 2784 897 2784 1497 
L 2784 1825 
z
" transform="scale(0.015625)"/>
      <path id="DejaVuSerif-6f" d="M 1925 219 
Q 2388 219 2623 584 
Q 2859 950 2859 1663 
Q 2859 2375 2623 2739 
Q 2388 3103 1925 3103 
Q 1463 3103 1227 2739 
Q 991 2375 991 1663 
Q 991 950 1228 584 
Q 1466 219 1925 219 
z
M 1925 -91 
Q 1200 -91 759 389 
Q 319 869 319 1663 
Q 319 2456 758 2934 
Q 1197 3413 1925 3413 
Q 2653 3413 3092 2934 
Q 3531 2456 3531 1663 
Q 3531 869 3092 389 
Q 2653 -91 1925 -91 
z
" transform="scale(0.015625)"/>
      <path id="DejaVuSerif-72" d="M 3059 3328 
L 3059 2497 
L 2728 2497 
Q 2713 2744 2591 2866 
Q 2469 2988 2234 2988 
Q 1809 2988 1582 2694 
Q 1356 2400 1356 1850 
L 1356 331 
L 2022 331 
L 2022 0 
L 263 0 
L 263 331 
L 781 331 
L 781 2994 
L 231 2994 
L 231 3322 
L 1356 3322 
L 1356 2731 
Q 1525 3078 1790 3245 
Q 2056 3413 2438 3413 
Q 2578 3413 2733 3391 
Q 2888 3369 3059 3328 
z
" transform="scale(0.015625)"/>
      <path id="DejaVuSerif-69" d="M 622 4353 
Q 622 4497 726 4603 
Q 831 4709 978 4709 
Q 1122 4709 1226 4603 
Q 1331 4497 1331 4353 
Q 1331 4206 1228 4103 
Q 1125 4000 978 4000 
Q 831 4000 726 4103 
Q 622 4206 622 4353 
z
M 1356 331 
L 1900 331 
L 1900 0 
L 231 0 
L 231 331 
L 781 331 
L 781 2988 
L 231 2988 
L 231 3322 
L 1356 3322 
L 1356 331 
z
" transform="scale(0.015625)"/>
      <path id="DejaVuSerif-7a" d="M 256 0 
L 256 269 
L 2338 2988 
L 691 2988 
L 691 2413 
L 359 2413 
L 359 3322 
L 3078 3322 
L 3078 3053 
L 997 331 
L 2803 331 
L 2803 934 
L 3138 934 
L 3138 0 
L 256 0 
z
" transform="scale(0.015625)"/>
      <path id="DejaVuSerif-64" d="M 3359 331 
L 3909 331 
L 3909 0 
L 2784 0 
L 2784 519 
Q 2616 206 2355 57 
Q 2094 -91 1709 -91 
Q 1097 -91 708 395 
Q 319 881 319 1663 
Q 319 2444 706 2928 
Q 1094 3413 1709 3413 
Q 2094 3413 2355 3264 
Q 2616 3116 2784 2803 
L 2784 4531 
L 2241 4531 
L 2241 4863 
L 3359 4863 
L 3359 331 
z
M 2784 1497 
L 2784 1825 
Q 2784 2422 2554 2737 
Q 2325 3053 1888 3053 
Q 1444 3053 1217 2703 
Q 991 2353 991 1663 
Q 991 975 1217 622 
Q 1444 269 1888 269 
Q 2325 269 2554 583 
Q 2784 897 2784 1497 
z
" transform="scale(0.015625)"/>
     </defs>
     <use xlink:href="#DejaVuSerif-55"/>
     <use xlink:href="#DejaVuSerif-6e" x="84.277344"/>
     <use xlink:href="#DejaVuSerif-63" x="148.681641"/>
     <use xlink:href="#DejaVuSerif-61" x="204.6875"/>
     <use xlink:href="#DejaVuSerif-74" x="264.306641"/>
     <use xlink:href="#DejaVuSerif-65" x="304.492188"/>
     <use xlink:href="#DejaVuSerif-67" x="363.671875"/>
     <use xlink:href="#DejaVuSerif-6f" x="427.685547"/>
     <use xlink:href="#DejaVuSerif-72" x="487.890625"/>
     <use xlink:href="#DejaVuSerif-69" x="535.693359"/>
     <use xlink:href="#DejaVuSerif-7a" x="567.675781"/>
     <use xlink:href="#DejaVuSerif-65" x="620.361328"/>
     <use xlink:href="#DejaVuSerif-64" x="679.541016"/>
    </g>
    <!-- (996) -->
    <g transform="translate(195.749411 98.874758) scale(0.09 -0.09)">
     <defs>
      <path id="DejaVuSerif-39" d="M 2994 2091 
Q 2784 1856 2512 1740 
Q 2241 1625 1900 1625 
Q 1206 1625 804 2044 
Q 403 2463 403 3188 
Q 403 3897 839 4323 
Q 1275 4750 2003 4750 
Q 2794 4750 3217 4161 
Q 3641 3572 3641 2478 
Q 3641 1253 3137 581 
Q 2634 -91 1722 -91 
Q 1475 -91 1203 -44 
Q 931 3 647 97 
L 647 872 
L 997 872 
Q 1038 556 1241 387 
Q 1444 219 1784 219 
Q 2391 219 2687 676 
Q 2984 1134 2994 2091 
z
M 1978 4441 
Q 1534 4441 1298 4117 
Q 1063 3794 1063 3188 
Q 1063 2581 1298 2256 
Q 1534 1931 1978 1931 
Q 2422 1931 2658 2245 
Q 2894 2559 2894 3150 
Q 2894 3772 2656 4106 
Q 2419 4441 1978 4441 
z
" transform="scale(0.015625)"/>
      <path id="DejaVuSerif-36" d="M 2094 219 
Q 2534 219 2771 542 
Q 3009 866 3009 1472 
Q 3009 2078 2771 2401 
Q 2534 2725 2094 2725 
Q 1647 2725 1412 2412 
Q 1178 2100 1178 1509 
Q 1178 888 1415 553 
Q 1653 219 2094 219 
z
M 1075 2569 
Q 1288 2803 1556 2918 
Q 1825 3034 2163 3034 
Q 2859 3034 3264 2615 
Q 3669 2197 3669 1472 
Q 3669 763 3233 336 
Q 2797 -91 2069 -91 
Q 1278 -91 853 498 
Q 428 1088 428 2181 
Q 428 3406 931 4078 
Q 1434 4750 2350 4750 
Q 2597 4750 2869 4703 
Q 3141 4656 3425 4563 
L 3425 3794 
L 3072 3794 
Q 3034 4109 2831 4275 
Q 2628 4441 2284 4441 
Q 1678 4441 1381 3981 
Q 1084 3522 1075 2569 
z
" transform="scale(0.015625)"/>
     </defs>
     <use xlink:href="#DejaVuSerif-28"/>
     <use xlink:href="#DejaVuSerif-39" x="39.013672"/>
     <use xlink:href="#DejaVuSerif-39" x="102.636719"/>
     <use xlink:href="#DejaVuSerif-36" x="166.259766"/>
     <use xlink:href="#DejaVuSerif-29" x="229.882812"/>
    </g>
   </g>
   <g id="text_3">
    <!-- Computing -->
    <g transform="translate(462.31414 395.502573) scale(0.09 -0.09)">
     <defs>
      <path id="DejaVuSerif-43" d="M 4513 1234 
Q 4306 581 3820 245 
Q 3334 -91 2591 -91 
Q 2134 -91 1743 65 
Q 1353 222 1050 525 
Q 700 875 529 1320 
Q 359 1766 359 2328 
Q 359 3416 987 4083 
Q 1616 4750 2644 4750 
Q 3025 4750 3456 4650 
Q 3888 4550 4384 4347 
L 4384 3272 
L 4031 3272 
Q 3916 3859 3567 4137 
Q 3219 4416 2591 4416 
Q 1844 4416 1459 3886 
Q 1075 3356 1075 2328 
Q 1075 1303 1459 773 
Q 1844 244 2591 244 
Q 3113 244 3450 492 
Q 3788 741 3938 1234 
L 4513 1234 
z
" transform="scale(0.015625)"/>
      <path id="DejaVuSerif-6d" d="M 3316 2675 
Q 3481 3041 3739 3227 
Q 3997 3413 4341 3413 
Q 4863 3413 5119 3089 
Q 5375 2766 5375 2113 
L 5375 331 
L 5894 331 
L 5894 0 
L 4300 0 
L 4300 331 
L 4800 331 
L 4800 2047 
Q 4800 2556 4650 2772 
Q 4500 2988 4153 2988 
Q 3769 2988 3567 2697 
Q 3366 2406 3366 1850 
L 3366 331 
L 3866 331 
L 3866 0 
L 2291 0 
L 2291 331 
L 2791 331 
L 2791 2069 
Q 2791 2566 2641 2777 
Q 2491 2988 2144 2988 
Q 1759 2988 1557 2697 
Q 1356 2406 1356 1850 
L 1356 331 
L 1856 331 
L 1856 0 
L 263 0 
L 263 331 
L 781 331 
L 781 2994 
L 231 2994 
L 231 3322 
L 1356 3322 
L 1356 2731 
Q 1516 3063 1762 3238 
Q 2009 3413 2322 3413 
Q 2709 3413 2968 3220 
Q 3228 3028 3316 2675 
z
" transform="scale(0.015625)"/>
      <path id="DejaVuSerif-70" d="M 1313 1825 
L 1313 1497 
Q 1313 897 1542 583 
Q 1772 269 2209 269 
Q 2650 269 2876 622 
Q 3103 975 3103 1663 
Q 3103 2353 2876 2703 
Q 2650 3053 2209 3053 
Q 1772 3053 1542 2737 
Q 1313 2422 1313 1825 
z
M 738 2988 
L 184 2988 
L 184 3322 
L 1313 3322 
L 1313 2803 
Q 1481 3116 1742 3264 
Q 2003 3413 2388 3413 
Q 3000 3413 3387 2928 
Q 3775 2444 3775 1663 
Q 3775 881 3387 395 
Q 3000 -91 2388 -91 
Q 2003 -91 1742 57 
Q 1481 206 1313 519 
L 1313 -997 
L 1856 -997 
L 1856 -1331 
L 184 -1331 
L 184 -997 
L 738 -997 
L 738 2988 
z
" transform="scale(0.015625)"/>
      <path id="DejaVuSerif-75" d="M 2266 3322 
L 3341 3322 
L 3341 331 
L 3884 331 
L 3884 0 
L 2766 0 
L 2766 588 
Q 2606 256 2353 82 
Q 2100 -91 1766 -91 
Q 1213 -91 952 223 
Q 691 538 691 1209 
L 691 2988 
L 172 2988 
L 172 3322 
L 1269 3322 
L 1269 1388 
Q 1269 781 1417 556 
Q 1566 331 1947 331 
Q 2347 331 2556 625 
Q 2766 919 2766 1478 
L 2766 2988 
L 2266 2988 
L 2266 3322 
z
" transform="scale(0.015625)"/>
     </defs>
     <use xlink:href="#DejaVuSerif-43"/>
     <use xlink:href="#DejaVuSerif-6f" x="76.513672"/>
     <use xlink:href="#DejaVuSerif-6d" x="136.71875"/>
     <use xlink:href="#DejaVuSerif-70" x="231.542969"/>
     <use xlink:href="#DejaVuSerif-75" x="295.556641"/>
     <use xlink:href="#DejaVuSerif-74" x="359.960938"/>
     <use xlink:href="#DejaVuSerif-69" x="400.146484"/>
     <use xlink:href="#DejaVuSerif-6e" x="432.128906"/>
     <use xlink:href="#DejaVuSerif-67" x="496.533203"/>
    </g>
    <!-- (520) -->
    <g transform="translate(475.438671 405.708573) scale(0.09 -0.09)">
     <defs>
      <path id="DejaVuSerif-35" d="M 3219 4666 
L 3219 4153 
L 1081 4153 
L 1081 2816 
Q 1244 2928 1461 2984 
Q 1678 3041 1947 3041 
Q 2703 3041 3140 2622 
Q 3578 2203 3578 1478 
Q 3578 738 3136 323 
Q 2694 -91 1894 -91 
Q 1572 -91 1234 -12 
Q 897 66 544 225 
L 544 1131 
L 897 1131 
Q 925 688 1179 453 
Q 1434 219 1894 219 
Q 2388 219 2653 544 
Q 2919 869 2919 1478 
Q 2919 2084 2655 2407 
Q 2391 2731 1894 2731 
Q 1613 2731 1398 2631 
Q 1184 2531 1019 2322 
L 750 2322 
L 750 4666 
L 3219 4666 
z
" transform="scale(0.015625)"/>
      <path id="DejaVuSerif-30" d="M 2034 219 
Q 2513 219 2750 744 
Q 2988 1269 2988 2328 
Q 2988 3391 2750 3916 
Q 2513 4441 2034 4441 
Q 1556 4441 1318 3916 
Q 1081 3391 1081 2328 
Q 1081 1269 1318 744 
Q 1556 219 2034 219 
z
M 2034 -91 
Q 1275 -91 848 546 
Q 422 1184 422 2328 
Q 422 3475 848 4112 
Q 1275 4750 2034 4750 
Q 2797 4750 3222 4112 
Q 3647 3475 3647 2328 
Q 3647 1184 3222 546 
Q 2797 -91 2034 -91 
z
" transform="scale(0.015625)"/>
     </defs>
     <use xlink:href="#DejaVuSerif-28"/>
     <use xlink:href="#DejaVuSerif-35" x="39.013672"/>
     <use xlink:href="#DejaVuSerif-32" x="102.636719"/>
     <use xlink:href="#DejaVuSerif-30" x="166.259766"/>
     <use xlink:href="#DejaVuSerif-29" x="229.882812"/>
    </g>
   </g>
   <g id="text_4">
    <!-- Software development -->
    <g transform="translate(582.908002 395.630542) scale(0.09 -0.09)">
     <defs>
      <path id="DejaVuSerif-53" d="M 594 225 
L 594 1288 
L 953 1284 
Q 969 753 1261 498 
Q 1553 244 2150 244 
Q 2706 244 2998 464 
Q 3291 684 3291 1106 
Q 3291 1444 3114 1625 
Q 2938 1806 2369 1978 
L 1753 2163 
Q 1084 2366 811 2669 
Q 538 2972 538 3500 
Q 538 4094 959 4422 
Q 1381 4750 2144 4750 
Q 2469 4750 2856 4679 
Q 3244 4609 3681 4475 
L 3681 3481 
L 3328 3481 
Q 3275 3975 2998 4195 
Q 2722 4416 2156 4416 
Q 1663 4416 1405 4214 
Q 1147 4013 1147 3628 
Q 1147 3294 1340 3103 
Q 1534 2913 2163 2725 
L 2741 2553 
Q 3375 2363 3645 2067 
Q 3916 1772 3916 1275 
Q 3916 597 3481 253 
Q 3047 -91 2188 -91 
Q 1803 -91 1404 -12 
Q 1006 66 594 225 
z
" transform="scale(0.015625)"/>
      <path id="DejaVuSerif-66" d="M 2753 4078 
L 2450 4078 
Q 2447 4313 2317 4434 
Q 2188 4556 1941 4556 
Q 1619 4556 1487 4379 
Q 1356 4203 1356 3750 
L 1356 3322 
L 2284 3322 
L 2284 2988 
L 1356 2988 
L 1356 331 
L 2094 331 
L 2094 0 
L 231 0 
L 231 331 
L 781 331 
L 781 2988 
L 231 2988 
L 231 3322 
L 781 3322 
L 781 3738 
Q 781 4294 1070 4578 
Q 1359 4863 1919 4863 
Q 2128 4863 2337 4825 
Q 2547 4788 2753 4709 
L 2753 4078 
z
" transform="scale(0.015625)"/>
      <path id="DejaVuSerif-77" d="M 3072 3322 
L 3922 728 
L 4672 2988 
L 4191 2988 
L 4191 3322 
L 5394 3322 
L 5394 2988 
L 5025 2988 
L 4038 0 
L 3559 0 
L 2741 2484 
L 1919 0 
L 1459 0 
L 475 2988 
L 103 2988 
L 103 3322 
L 1606 3322 
L 1606 2988 
L 1069 2988 
L 1813 728 
L 2669 3322 
L 3072 3322 
z
" transform="scale(0.015625)"/>
      <path id="DejaVuSerif-20" transform="scale(0.015625)"/>
      <path id="DejaVuSerif-76" d="M 1581 0 
L 359 2988 
L -19 2988 
L -19 3322 
L 1509 3322 
L 1509 2988 
L 978 2988 
L 1913 703 
L 2847 2988 
L 2350 2988 
L 2350 3322 
L 3597 3322 
L 3597 2988 
L 3225 2988 
L 2003 0 
L 1581 0 
z
" transform="scale(0.015625)"/>
      <path id="DejaVuSerif-6c" d="M 1313 331 
L 1856 331 
L 1856 0 
L 184 0 
L 184 331 
L 738 331 
L 738 4531 
L 184 4531 
L 184 4863 
L 1313 4863 
L 1313 331 
z
" transform="scale(0.015625)"/>
     </defs>
     <use xlink:href="#DejaVuSerif-53"/>
     <use xlink:href="#DejaVuSerif-6f" x="68.505859"/>
     <use xlink:href="#DejaVuSerif-66" x="128.710938"/>
     <use xlink:href="#DejaVuSerif-74" x="165.722656"/>
     <use xlink:href="#DejaVuSerif-77" x="205.908203"/>
     <use xlink:href="#DejaVuSerif-61" x="291.503906"/>
     <use xlink:href="#DejaVuSerif-72" x="351.123047"/>
     <use xlink:href="#DejaVuSerif-65" x="398.925781"/>
     <use xlink:href="#DejaVuSerif-20" x="458.105469"/>
     <use xlink:href="#DejaVuSerif-64" x="489.892578"/>
     <use xlink:href="#DejaVuSerif-65" x="553.90625"/>
     <use xlink:href="#DejaVuSerif-76" x="613.085938"/>
     <use xlink:href="#DejaVuSerif-65" x="669.580078"/>
     <use xlink:href="#DejaVuSerif-6c" x="728.759766"/>
     <use xlink:href="#DejaVuSerif-6f" x="760.742188"/>
     <use xlink:href="#DejaVuSerif-70" x="820.947266"/>
     <use xlink:href="#DejaVuSerif-6d" x="884.960938"/>
     <use xlink:href="#DejaVuSerif-65" x="979.785156"/>
     <use xlink:href="#DejaVuSerif-6e" x="1038.964844"/>
     <use xlink:href="#DejaVuSerif-74" x="1103.369141"/>
    </g>
    <!-- (446) -->
    <g transform="translate(622.268939 405.708573) scale(0.09 -0.09)">
     <defs>
      <path id="DejaVuSerif-34" d="M 2234 1581 
L 2234 4063 
L 641 1581 
L 2234 1581 
z
M 3609 0 
L 1484 0 
L 1484 331 
L 2234 331 
L 2234 1247 
L 197 1247 
L 197 1588 
L 2241 4750 
L 2859 4750 
L 2859 1581 
L 3750 1581 
L 3750 1247 
L 2859 1247 
L 2859 331 
L 3609 331 
L 3609 0 
z
" transform="scale(0.015625)"/>
     </defs>
     <use xlink:href="#DejaVuSerif-28"/>
     <use xlink:href="#DejaVuSerif-34" x="39.013672"/>
     <use xlink:href="#DejaVuSerif-34" x="102.636719"/>
     <use xlink:href="#DejaVuSerif-36" x="166.259766"/>
     <use xlink:href="#DejaVuSerif-29" x="229.882812"/>
    </g>
   </g>
   <g id="text_5">
    <!-- Statistics -->
    <g transform="translate(481.861376 242.804054) scale(0.09 -0.09)">
     <defs>
      <path id="DejaVuSerif-73" d="M 359 184 
L 359 959 
L 691 959 
Q 703 588 923 403 
Q 1144 219 1575 219 
Q 1963 219 2166 364 
Q 2369 509 2369 788 
Q 2369 1006 2220 1140 
Q 2072 1275 1594 1428 
L 1178 1569 
Q 750 1706 558 1912 
Q 366 2119 366 2438 
Q 366 2894 700 3153 
Q 1034 3413 1625 3413 
Q 1888 3413 2178 3344 
Q 2469 3275 2778 3144 
L 2778 2419 
L 2447 2419 
Q 2434 2741 2221 2922 
Q 2009 3103 1644 3103 
Q 1281 3103 1095 2975 
Q 909 2847 909 2591 
Q 909 2381 1050 2254 
Q 1191 2128 1613 1997 
L 2069 1856 
Q 2541 1709 2748 1489 
Q 2956 1269 2956 922 
Q 2956 450 2595 179 
Q 2234 -91 1600 -91 
Q 1278 -91 972 -22 
Q 666 47 359 184 
z
" transform="scale(0.015625)"/>
     </defs>
     <use xlink:href="#DejaVuSerif-53"/>
     <use xlink:href="#DejaVuSerif-74" x="68.505859"/>
     <use xlink:href="#DejaVuSerif-61" x="108.691406"/>
     <use xlink:href="#DejaVuSerif-74" x="168.310547"/>
     <use xlink:href="#DejaVuSerif-69" x="208.496094"/>
     <use xlink:href="#DejaVuSerif-73" x="240.478516"/>
     <use xlink:href="#DejaVuSerif-74" x="291.796875"/>
     <use xlink:href="#DejaVuSerif-69" x="331.982422"/>
     <use xlink:href="#DejaVuSerif-63" x="363.964844"/>
     <use xlink:href="#DejaVuSerif-73" x="419.970703"/>
    </g>
    <!-- (418) -->
    <g transform="translate(490.968251 252.882085) scale(0.09 -0.09)">
     <defs>
      <path id="DejaVuSerif-31" d="M 909 0 
L 909 331 
L 1722 331 
L 1722 4213 
L 781 3603 
L 781 4013 
L 1919 4750 
L 2350 4750 
L 2350 331 
L 3163 331 
L 3163 0 
L 909 0 
z
" transform="scale(0.015625)"/>
     </defs>
     <use xlink:href="#DejaVuSerif-28"/>
     <use xlink:href="#DejaVuSerif-34" x="39.013672"/>
     <use xlink:href="#DejaVuSerif-31" x="102.636719"/>
     <use xlink:href="#DejaVuSerif-38" x="166.259766"/>
     <use xlink:href="#DejaVuSerif-29" x="229.882812"/>
    </g>
   </g>
   <g id="text_6">
    <!-- Science -->
    <g transform="translate(632.112347 242.804054) scale(0.09 -0.09)">
     <use xlink:href="#DejaVuSerif-53"/>
     <use xlink:href="#DejaVuSerif-63" x="68.505859"/>
     <use xlink:href="#DejaVuSerif-69" x="124.511719"/>
     <use xlink:href="#DejaVuSerif-65" x="156.494141"/>
     <use xlink:href="#DejaVuSerif-6e" x="215.673828"/>
     <use xlink:href="#DejaVuSerif-63" x="280.078125"/>
     <use xlink:href="#DejaVuSerif-65" x="336.083984"/>
    </g>
    <!-- (231) -->
    <g transform="translate(637.798519 252.882085) scale(0.09 -0.09)">
     <use xlink:href="#DejaVuSerif-28"/>
     <use xlink:href="#DejaVuSerif-32" x="39.013672"/>
     <use xlink:href="#DejaVuSerif-33" x="102.636719"/>
     <use xlink:href="#DejaVuSerif-31" x="166.259766"/>
     <use xlink:href="#DejaVuSerif-29" x="229.882812"/>
    </g>
   </g>
   <g id="text_7">
    <!-- Business -->
    <g transform="translate(454.217212 137.923295) scale(0.09 -0.09)">
     <defs>
      <path id="DejaVuSerif-42" d="M 1581 331 
L 2516 331 
Q 3078 331 3337 575 
Q 3597 819 3597 1350 
Q 3597 1878 3339 2120 
Q 3081 2363 2516 2363 
L 1581 2363 
L 1581 331 
z
M 1581 2694 
L 2375 2694 
Q 2888 2694 3123 2891 
Q 3359 3088 3359 3513 
Q 3359 3941 3123 4136 
Q 2888 4331 2375 4331 
L 1581 4331 
L 1581 2694 
z
M 353 0 
L 353 331 
L 947 331 
L 947 4331 
L 353 4331 
L 353 4666 
L 2656 4666 
Q 3363 4666 3720 4377 
Q 4078 4088 4078 3513 
Q 4078 3097 3829 2850 
Q 3581 2603 3103 2547 
Q 3697 2472 4005 2167 
Q 4313 1863 4313 1350 
Q 4313 656 3875 328 
Q 3438 0 2509 0 
L 353 0 
z
" transform="scale(0.015625)"/>
     </defs>
     <use xlink:href="#DejaVuSerif-42"/>
     <use xlink:href="#DejaVuSerif-75" x="73.486328"/>
     <use xlink:href="#DejaVuSerif-73" x="137.890625"/>
     <use xlink:href="#DejaVuSerif-69" x="189.208984"/>
     <use xlink:href="#DejaVuSerif-6e" x="221.191406"/>
     <use xlink:href="#DejaVuSerif-65" x="285.595703"/>
     <use xlink:href="#DejaVuSerif-73" x="344.775391"/>
     <use xlink:href="#DejaVuSerif-73" x="396.09375"/>
    </g>
    <!-- (206) -->
    <g transform="translate(462.249712 148.001326) scale(0.09 -0.09)">
     <use xlink:href="#DejaVuSerif-28"/>
     <use xlink:href="#DejaVuSerif-32" x="39.013672"/>
     <use xlink:href="#DejaVuSerif-30" x="102.636719"/>
     <use xlink:href="#DejaVuSerif-36" x="166.259766"/>
     <use xlink:href="#DejaVuSerif-29" x="229.882812"/>
    </g>
   </g>
   <g id="text_8">
    <!-- Python -->
    <g transform="translate(458.466196 57.045799) scale(0.09 -0.09)">
     <defs>
      <path id="DejaVuSerif-50" d="M 1581 2375 
L 2406 2375 
Q 2872 2375 3115 2626 
Q 3359 2878 3359 3353 
Q 3359 3831 3115 4081 
Q 2872 4331 2406 4331 
L 1581 4331 
L 1581 2375 
z
M 353 0 
L 353 331 
L 947 331 
L 947 4331 
L 353 4331 
L 353 4666 
L 2559 4666 
Q 3259 4666 3668 4311 
Q 4078 3956 4078 3353 
Q 4078 2753 3668 2397 
Q 3259 2041 2559 2041 
L 1581 2041 
L 1581 331 
L 2303 331 
L 2303 0 
L 353 0 
z
" transform="scale(0.015625)"/>
      <path id="DejaVuSerif-79" d="M 1381 -609 
L 1600 -56 
L 359 2988 
L -19 2988 
L -19 3322 
L 1509 3322 
L 1509 2988 
L 978 2988 
L 1913 703 
L 2847 2988 
L 2350 2988 
L 2350 3322 
L 3597 3322 
L 3597 2988 
L 3225 2988 
L 1703 -750 
Q 1547 -1138 1356 -1280 
Q 1166 -1422 819 -1422 
Q 672 -1422 517 -1397 
Q 363 -1372 206 -1325 
L 206 -691 
L 500 -691 
Q 519 -903 608 -995 
Q 697 -1088 884 -1088 
Q 1056 -1088 1161 -992 
Q 1266 -897 1381 -609 
z
" transform="scale(0.015625)"/>
     </defs>
     <use xlink:href="#DejaVuSerif-50"/>
     <use xlink:href="#DejaVuSerif-79" x="67.285156"/>
     <use xlink:href="#DejaVuSerif-74" x="123.779297"/>
     <use xlink:href="#DejaVuSerif-68" x="163.964844"/>
     <use xlink:href="#DejaVuSerif-6f" x="228.369141"/>
     <use xlink:href="#DejaVuSerif-6e" x="288.574219"/>
    </g>
    <!-- (177) -->
    <g transform="translate(462.249712 67.251799) scale(0.09 -0.09)">
     <use xlink:href="#DejaVuSerif-28"/>
     <use xlink:href="#DejaVuSerif-31" x="39.013672"/>
     <use xlink:href="#DejaVuSerif-37" x="102.636719"/>
     <use xlink:href="#DejaVuSerif-37" x="166.259766"/>
     <use xlink:href="#DejaVuSerif-29" x="229.882812"/>
    </g>
   </g>
   <g id="text_9">
    <!-- Creativity -->
    <g transform="translate(598.659668 153.63745) scale(0.09 -0.09)">
     <use xlink:href="#DejaVuSerif-43"/>
     <use xlink:href="#DejaVuSerif-72" x="76.513672"/>
     <use xlink:href="#DejaVuSerif-65" x="124.316406"/>
     <use xlink:href="#DejaVuSerif-61" x="183.496094"/>
     <use xlink:href="#DejaVuSerif-74" x="243.115234"/>
     <use xlink:href="#DejaVuSerif-69" x="283.300781"/>
     <use xlink:href="#DejaVuSerif-76" x="315.283203"/>
     <use xlink:href="#DejaVuSerif-69" x="371.777344"/>
     <use xlink:href="#DejaVuSerif-74" x="403.759766"/>
     <use xlink:href="#DejaVuSerif-79" x="443.945312"/>
    </g>
    <!-- (161) -->
    <g transform="translate(609.07998 163.84345) scale(0.09 -0.09)">
     <use xlink:href="#DejaVuSerif-28"/>
     <use xlink:href="#DejaVuSerif-31" x="39.013672"/>
     <use xlink:href="#DejaVuSerif-36" x="102.636719"/>
     <use xlink:href="#DejaVuSerif-31" x="166.259766"/>
     <use xlink:href="#DejaVuSerif-29" x="229.882812"/>
    </g>
   </g>
   <g id="text_10">
    <!-- Music -->
    <g transform="translate(562.998068 93.847727) scale(0.09 -0.09)">
     <use xlink:href="#DejaVuSerif-4d"/>
     <use xlink:href="#DejaVuSerif-75" x="102.392578"/>
     <use xlink:href="#DejaVuSerif-73" x="166.796875"/>
     <use xlink:href="#DejaVuSerif-69" x="218.115234"/>
     <use xlink:href="#DejaVuSerif-63" x="250.097656"/>
    </g>
    <!-- (85) -->
    <g transform="translate(567.53463 103.925758) scale(0.09 -0.09)">
     <use xlink:href="#DejaVuSerif-28"/>
     <use xlink:href="#DejaVuSerif-38" x="39.013672"/>
     <use xlink:href="#DejaVuSerif-35" x="102.636719"/>
     <use xlink:href="#DejaVuSerif-29" x="166.259766"/>
    </g>
   </g>
   <g id="text_11">
    <!-- Clinical trials -->
    <g transform="translate(546.210255 40.658367) scale(0.09 -0.09)">
     <use xlink:href="#DejaVuSerif-43"/>
     <use xlink:href="#DejaVuSerif-6c" x="76.513672"/>
     <use xlink:href="#DejaVuSerif-69" x="108.496094"/>
     <use xlink:href="#DejaVuSerif-6e" x="140.478516"/>
     <use xlink:href="#DejaVuSerif-69" x="204.882812"/>
     <use xlink:href="#DejaVuSerif-63" x="236.865234"/>
     <use xlink:href="#DejaVuSerif-61" x="292.871094"/>
     <use xlink:href="#DejaVuSerif-6c" x="352.490234"/>
     <use xlink:href="#DejaVuSerif-20" x="384.472656"/>
     <use xlink:href="#DejaVuSerif-74" x="416.259766"/>
     <use xlink:href="#DejaVuSerif-72" x="456.445312"/>
     <use xlink:href="#DejaVuSerif-69" x="504.248047"/>
     <use xlink:href="#DejaVuSerif-61" x="536.230469"/>
     <use xlink:href="#DejaVuSerif-6c" x="595.849609"/>
     <use xlink:href="#DejaVuSerif-73" x="627.832031"/>
    </g>
    <!-- (55) -->
    <g transform="translate(567.53463 50.736398) scale(0.09 -0.09)">
     <use xlink:href="#DejaVuSerif-28"/>
     <use xlink:href="#DejaVuSerif-35" x="39.013672"/>
     <use xlink:href="#DejaVuSerif-35" x="102.636719"/>
     <use xlink:href="#DejaVuSerif-29" x="166.259766"/>
    </g>
   </g>
   <g id="text_12">
    <!-- Typography -->
    <g transform="translate(630.58229 110.433353) scale(0.09 -0.09)">
     <defs>
      <path id="DejaVuSerif-54" d="M 1222 0 
L 1222 331 
L 1819 331 
L 1819 4294 
L 447 4294 
L 447 3566 
L 63 3566 
L 63 4666 
L 4206 4666 
L 4206 3566 
L 3822 3566 
L 3822 4294 
L 2450 4294 
L 2450 331 
L 3047 331 
L 3047 0 
L 1222 0 
z
" transform="scale(0.015625)"/>
     </defs>
     <use xlink:href="#DejaVuSerif-54"/>
     <use xlink:href="#DejaVuSerif-79" x="66.699219"/>
     <use xlink:href="#DejaVuSerif-70" x="123.193359"/>
     <use xlink:href="#DejaVuSerif-6f" x="187.207031"/>
     <use xlink:href="#DejaVuSerif-67" x="247.412109"/>
     <use xlink:href="#DejaVuSerif-72" x="311.425781"/>
     <use xlink:href="#DejaVuSerif-61" x="359.228516"/>
     <use xlink:href="#DejaVuSerif-70" x="418.847656"/>
     <use xlink:href="#DejaVuSerif-68" x="482.861328"/>
     <use xlink:href="#DejaVuSerif-79" x="547.265625"/>
    </g>
    <!-- (50) -->
    <g transform="translate(648.51479 120.639353) scale(0.09 -0.09)">
     <use xlink:href="#DejaVuSerif-28"/>
     <use xlink:href="#DejaVuSerif-35" x="39.013672"/>
     <use xlink:href="#DejaVuSerif-30" x="102.636719"/>
     <use xlink:href="#DejaVuSerif-29" x="166.259766"/>
    </g>
   </g>
   <g id="text_13">
    <!-- PowerShell -->
    <g transform="translate(610.789439 66.694335) scale(0.09 -0.09)">
     <use xlink:href="#DejaVuSerif-50"/>
     <use xlink:href="#DejaVuSerif-6f" x="63.285156"/>
     <use xlink:href="#DejaVuSerif-77" x="123.490234"/>
     <use xlink:href="#DejaVuSerif-65" x="209.085938"/>
     <use xlink:href="#DejaVuSerif-72" x="268.265625"/>
     <use xlink:href="#DejaVuSerif-53" x="316.068359"/>
     <use xlink:href="#DejaVuSerif-68" x="384.574219"/>
     <use xlink:href="#DejaVuSerif-65" x="448.978516"/>
     <use xlink:href="#DejaVuSerif-6c" x="508.158203"/>
     <use xlink:href="#DejaVuSerif-6c" x="540.140625"/>
    </g>
    <!-- (47) -->
    <g transform="translate(627.297408 76.772366) scale(0.09 -0.09)">
     <use xlink:href="#DejaVuSerif-28"/>
     <use xlink:href="#DejaVuSerif-34" x="39.013672"/>
     <use xlink:href="#DejaVuSerif-37" x="102.636719"/>
     <use xlink:href="#DejaVuSerif-29" x="166.259766"/>
    </g>
   </g>
   <g id="text_14">
    <!-- Graphics -->
    <g transform="translate(660.467132 66.694335) scale(0.09 -0.09)">
     <defs>
      <path id="DejaVuSerif-47" d="M 4097 3272 
Q 3988 3856 3641 4136 
Q 3294 4416 2675 4416 
Q 1869 4416 1472 3897 
Q 1075 3378 1075 2328 
Q 1075 1300 1484 772 
Q 1894 244 2688 244 
Q 3041 244 3362 331 
Q 3684 419 3975 594 
L 3975 1797 
L 3097 1797 
L 3097 2131 
L 4609 2131 
L 4609 391 
Q 4194 150 3714 29 
Q 3234 -91 2688 -91 
Q 1631 -91 995 570 
Q 359 1231 359 2328 
Q 359 3434 996 4092 
Q 1634 4750 2713 4750 
Q 3113 4750 3539 4658 
Q 3966 4566 4447 4378 
L 4447 3272 
L 4097 3272 
z
" transform="scale(0.015625)"/>
     </defs>
     <use xlink:href="#DejaVuSerif-47"/>
     <use xlink:href="#DejaVuSerif-72" x="79.882812"/>
     <use xlink:href="#DejaVuSerif-61" x="127.685547"/>
     <use xlink:href="#DejaVuSerif-70" x="187.304688"/>
     <use xlink:href="#DejaVuSerif-68" x="251.318359"/>
     <use xlink:href="#DejaVuSerif-69" x="315.722656"/>
     <use xlink:href="#DejaVuSerif-63" x="347.705078"/>
     <use xlink:href="#DejaVuSerif-73" x="403.710938"/>
    </g>
    <!-- (43) -->
    <g transform="translate(671.705882 76.772366) scale(0.09 -0.09)">
     <use xlink:href="#DejaVuSerif-28"/>
     <use xlink:href="#DejaVuSerif-34" x="39.013672"/>
     <use xlink:href="#DejaVuSerif-33" x="102.636719"/>
     <use xlink:href="#DejaVuSerif-29" x="166.259766"/>
    </g>
   </g>
   <g id="text_15">
    <!-- Geography -->
    <g transform="translate(632.748618 29.08492) scale(0.09 -0.09)">
     <use xlink:href="#DejaVuSerif-47"/>
     <use xlink:href="#DejaVuSerif-65" x="79.882812"/>
     <use xlink:href="#DejaVuSerif-6f" x="139.0625"/>
     <use xlink:href="#DejaVuSerif-67" x="199.267578"/>
     <use xlink:href="#DejaVuSerif-72" x="263.28125"/>
     <use xlink:href="#DejaVuSerif-61" x="311.083984"/>
     <use xlink:href="#DejaVuSerif-70" x="370.703125"/>
     <use xlink:href="#DejaVuSerif-68" x="434.716797"/>
     <use xlink:href="#DejaVuSerif-79" x="499.121094"/>
    </g>
    <!-- (30) -->
    <g transform="translate(648.51479 39.29092) scale(0.09 -0.09)">
     <use xlink:href="#DejaVuSerif-28"/>
     <use xlink:href="#DejaVuSerif-33" x="39.013672"/>
     <use xlink:href="#DejaVuSerif-30" x="102.636719"/>
     <use xlink:href="#DejaVuSerif-29" x="166.259766"/>
    </g>
   </g>
   <g id="text_16">
    <!-- Category Distribution: Math Dominates at 45% -->
    <g transform="translate(196.458585 16.318125) scale(0.12 -0.12)">
     <defs>
      <path id="DejaVuSerif-Bold-43" d="M 4769 1331 
Q 4584 609 4106 259 
Q 3628 -91 2822 -91 
Q 1641 -91 955 561 
Q 269 1213 269 2328 
Q 269 3447 955 4098 
Q 1641 4750 2822 4750 
Q 3238 4750 3688 4650 
Q 4138 4550 4641 4347 
L 4641 3200 
L 4244 3200 
Q 4122 3788 3800 4080 
Q 3478 4372 2950 4372 
Q 2269 4372 1937 3870 
Q 1606 3369 1606 2328 
Q 1606 1288 1937 788 
Q 2269 288 2956 288 
Q 3422 288 3717 547 
Q 4013 806 4147 1331 
L 4769 1331 
z
" transform="scale(0.015625)"/>
      <path id="DejaVuSerif-Bold-61" d="M 3525 2041 
L 3525 378 
L 4000 378 
L 4000 0 
L 2419 0 
L 2419 422 
Q 2200 159 1931 34 
Q 1663 -91 1319 -91 
Q 809 -91 536 182 
Q 263 456 263 966 
Q 263 1525 655 1803 
Q 1047 2081 1838 2081 
L 2419 2081 
L 2419 2278 
Q 2419 2681 2228 2873 
Q 2038 3066 1638 3066 
Q 1306 3066 1126 2930 
Q 947 2794 872 2484 
L 519 2484 
L 519 3200 
Q 816 3306 1134 3359 
Q 1453 3413 1806 3413 
Q 2697 3413 3111 3081 
Q 3525 2750 3525 2041 
z
M 2419 1044 
L 2419 1709 
L 2003 1709 
Q 1694 1709 1528 1540 
Q 1363 1372 1363 1056 
Q 1363 741 1483 584 
Q 1603 428 1850 428 
Q 2106 428 2262 597 
Q 2419 766 2419 1044 
z
" transform="scale(0.015625)"/>
      <path id="DejaVuSerif-Bold-74" d="M 634 2944 
L 153 2944 
L 153 3322 
L 634 3322 
L 634 4353 
L 1741 4353 
L 1741 3322 
L 2663 3322 
L 2663 2944 
L 1741 2944 
L 1741 909 
Q 1741 475 1809 369 
Q 1878 263 2059 263 
Q 2259 263 2356 397 
Q 2453 531 2459 813 
L 2925 813 
Q 2897 313 2651 111 
Q 2406 -91 1806 -91 
Q 1122 -91 878 123 
Q 634 338 634 909 
L 634 2944 
z
" transform="scale(0.015625)"/>
      <path id="DejaVuSerif-Bold-65" d="M 2566 1875 
Q 2566 2531 2444 2795 
Q 2322 3059 2028 3059 
Q 1744 3059 1620 2800 
Q 1497 2541 1497 1931 
L 1497 1875 
L 2566 1875 
z
M 3781 1503 
L 1497 1503 
L 1497 1478 
Q 1497 834 1690 548 
Q 1884 263 2316 263 
Q 2675 263 2897 453 
Q 3119 644 3181 1006 
L 3700 1006 
Q 3566 441 3166 175 
Q 2766 -91 2047 -91 
Q 1184 -91 723 364 
Q 263 819 263 1663 
Q 263 2488 734 2950 
Q 1206 3413 2047 3413 
Q 2872 3413 3312 2927 
Q 3753 2441 3781 1503 
z
" transform="scale(0.015625)"/>
      <path id="DejaVuSerif-Bold-67" d="M 3853 2944 
L 3853 44 
Q 3853 -656 3354 -1039 
Q 2856 -1422 1947 -1422 
Q 1616 -1422 1275 -1370 
Q 934 -1319 575 -1216 
L 575 -422 
L 928 -422 
Q 975 -750 1192 -909 
Q 1409 -1069 1813 -1069 
Q 2325 -1069 2536 -823 
Q 2747 -578 2747 44 
L 2747 422 
Q 2606 163 2367 36 
Q 2128 -91 1778 -91 
Q 1072 -91 667 378 
Q 263 847 263 1663 
Q 263 2481 667 2947 
Q 1072 3413 1778 3413 
Q 2128 3413 2367 3286 
Q 2606 3159 2747 2900 
L 2747 3322 
L 4325 3322 
L 4325 2944 
L 3853 2944 
z
M 2747 1825 
Q 2747 2406 2597 2665 
Q 2447 2925 2119 2925 
Q 1775 2925 1636 2651 
Q 1497 2378 1497 1663 
Q 1497 947 1637 672 
Q 1778 397 2119 397 
Q 2447 397 2597 656 
Q 2747 916 2747 1497 
L 2747 1825 
z
" transform="scale(0.015625)"/>
      <path id="DejaVuSerif-Bold-6f" d="M 2138 263 
Q 2488 263 2630 563 
Q 2772 863 2772 1663 
Q 2772 2463 2631 2761 
Q 2491 3059 2138 3059 
Q 1784 3059 1640 2757 
Q 1497 2456 1497 1663 
Q 1497 869 1640 566 
Q 1784 263 2138 263 
z
M 2138 -91 
Q 1259 -91 761 376 
Q 263 844 263 1663 
Q 263 2484 761 2948 
Q 1259 3413 2138 3413 
Q 3019 3413 3516 2948 
Q 4013 2484 4013 1663 
Q 4013 844 3514 376 
Q 3016 -91 2138 -91 
z
" transform="scale(0.015625)"/>
      <path id="DejaVuSerif-Bold-72" d="M 3438 3359 
L 3438 2369 
L 3084 2369 
Q 3066 2634 2941 2764 
Q 2816 2894 2578 2894 
Q 2216 2894 2006 2575 
Q 1797 2256 1797 1691 
L 1797 378 
L 2400 378 
L 2400 0 
L 219 0 
L 219 378 
L 691 378 
L 691 2944 
L 184 2944 
L 184 3322 
L 1797 3322 
L 1797 2731 
Q 1959 3078 2226 3245 
Q 2494 3413 2881 3413 
Q 2978 3413 3117 3398 
Q 3256 3384 3438 3359 
z
" transform="scale(0.015625)"/>
      <path id="DejaVuSerif-Bold-79" d="M 1997 -750 
Q 1847 -1116 1634 -1269 
Q 1422 -1422 1063 -1422 
Q 909 -1422 721 -1387 
Q 534 -1353 313 -1288 
L 313 -594 
L 666 -597 
Q 675 -838 779 -953 
Q 884 -1069 1094 -1069 
Q 1297 -1069 1422 -958 
Q 1547 -847 1672 -538 
L 1722 -422 
L 275 2944 
L -84 2944 
L -84 3322 
L 1831 3322 
L 1831 2944 
L 1434 2944 
L 2278 978 
L 3066 2944 
L 2625 2944 
L 2625 3322 
L 3872 3322 
L 3872 2944 
L 3469 2944 
L 1997 -750 
z
" transform="scale(0.015625)"/>
      <path id="DejaVuSerif-Bold-20" transform="scale(0.015625)"/>
      <path id="DejaVuSerif-Bold-44" d="M 2100 378 
L 2534 378 
Q 3266 378 3605 847 
Q 3944 1316 3944 2338 
Q 3944 3353 3606 3820 
Q 3269 4288 2534 4288 
L 2100 4288 
L 2100 378 
z
M 300 0 
L 300 378 
L 897 378 
L 897 4288 
L 300 4288 
L 300 4666 
L 2694 4666 
Q 3950 4666 4615 4066 
Q 5281 3466 5281 2338 
Q 5281 1203 4614 601 
Q 3947 0 2694 0 
L 300 0 
z
" transform="scale(0.015625)"/>
      <path id="DejaVuSerif-Bold-69" d="M 588 4263 
Q 588 4516 763 4689 
Q 938 4863 1191 4863 
Q 1438 4863 1611 4689 
Q 1784 4516 1784 4263 
Q 1784 4016 1611 3842 
Q 1438 3669 1191 3669 
Q 938 3669 763 3841 
Q 588 4013 588 4263 
z
M 1797 378 
L 2272 378 
L 2272 0 
L 219 0 
L 219 378 
L 691 378 
L 691 2944 
L 219 2944 
L 219 3322 
L 1797 3322 
L 1797 378 
z
" transform="scale(0.015625)"/>
      <path id="DejaVuSerif-Bold-73" d="M 300 97 
L 300 1025 
L 653 1025 
Q 697 653 931 458 
Q 1166 263 1569 263 
Q 1906 263 2086 380 
Q 2266 497 2266 716 
Q 2266 916 2152 1025 
Q 2038 1134 1709 1216 
L 1253 1331 
Q 738 1459 506 1698 
Q 275 1938 275 2344 
Q 275 2884 650 3148 
Q 1025 3413 1806 3413 
Q 2100 3413 2433 3364 
Q 2766 3316 3169 3213 
L 3169 2375 
L 2816 2375 
Q 2788 2716 2573 2887 
Q 2359 3059 1959 3059 
Q 1622 3059 1448 2951 
Q 1275 2844 1275 2638 
Q 1275 2469 1375 2372 
Q 1475 2275 1734 2209 
L 2188 2094 
Q 2841 1928 3091 1684 
Q 3341 1441 3341 1006 
Q 3341 444 2939 176 
Q 2538 -91 1691 -91 
Q 1381 -91 1034 -44 
Q 688 3 300 97 
z
" transform="scale(0.015625)"/>
      <path id="DejaVuSerif-Bold-62" d="M 622 378 
L 622 4488 
L 147 4488 
L 147 4863 
L 1728 4863 
L 1728 2900 
Q 1869 3159 2106 3286 
Q 2344 3413 2694 3413 
Q 3403 3413 3811 2945 
Q 4219 2478 4219 1663 
Q 4219 847 3811 378 
Q 3403 -91 2694 -91 
Q 2344 -91 2106 36 
Q 1869 163 1728 422 
L 1728 0 
L 147 0 
L 147 378 
L 622 378 
z
M 1728 1497 
Q 1728 916 1876 656 
Q 2025 397 2356 397 
Q 2697 397 2836 672 
Q 2975 947 2975 1663 
Q 2975 2378 2836 2651 
Q 2697 2925 2356 2925 
Q 2025 2925 1876 2665 
Q 1728 2406 1728 1825 
L 1728 1497 
z
" transform="scale(0.015625)"/>
      <path id="DejaVuSerif-Bold-75" d="M 3963 3322 
L 3963 378 
L 4434 378 
L 4434 0 
L 2853 0 
L 2853 469 
Q 2656 172 2400 40 
Q 2144 -91 1753 -91 
Q 1194 -91 908 239 
Q 622 569 622 1209 
L 622 2944 
L 147 2944 
L 147 3322 
L 1728 3322 
L 1728 1381 
Q 1728 763 1831 595 
Q 1934 428 2209 428 
Q 2544 428 2698 675 
Q 2853 922 2853 1459 
L 2853 2944 
L 2450 2944 
L 2450 3322 
L 3963 3322 
z
" transform="scale(0.015625)"/>
      <path id="DejaVuSerif-Bold-6e" d="M 219 0 
L 219 378 
L 691 378 
L 691 2944 
L 219 2944 
L 219 3322 
L 1797 3322 
L 1797 2853 
Q 1997 3150 2253 3281 
Q 2509 3413 2900 3413 
Q 3459 3413 3745 3083 
Q 4031 2753 4031 2113 
L 4031 378 
L 4506 378 
L 4506 0 
L 2522 0 
L 2522 378 
L 2925 378 
L 2925 2144 
Q 2925 2566 2817 2730 
Q 2709 2894 2444 2894 
Q 2109 2894 1953 2648 
Q 1797 2403 1797 1869 
L 1797 378 
L 2203 378 
L 2203 0 
L 219 0 
z
" transform="scale(0.015625)"/>
      <path id="DejaVuSerif-Bold-3a" d="M 588 2541 
Q 588 2788 761 2963 
Q 934 3138 1178 3138 
Q 1422 3138 1597 2961 
Q 1772 2784 1772 2541 
Q 1772 2297 1598 2125 
Q 1425 1953 1178 1953 
Q 931 1953 759 2125 
Q 588 2297 588 2541 
z
M 588 506 
Q 588 750 761 925 
Q 934 1100 1178 1100 
Q 1422 1100 1597 925 
Q 1772 750 1772 506 
Q 1772 259 1597 84 
Q 1422 -91 1178 -91 
Q 934 -91 761 84 
Q 588 259 588 506 
z
" transform="scale(0.015625)"/>
      <path id="DejaVuSerif-Bold-4d" d="M 269 0 
L 269 378 
L 863 378 
L 863 4288 
L 269 4288 
L 269 4666 
L 2194 4666 
L 3525 1672 
L 4863 4666 
L 6784 4666 
L 6784 4288 
L 6188 4288 
L 6188 378 
L 6784 378 
L 6784 0 
L 4384 0 
L 4384 378 
L 4978 378 
L 4978 3938 
L 3531 684 
L 2741 684 
L 1300 3938 
L 1300 378 
L 1894 378 
L 1894 0 
L 269 0 
z
" transform="scale(0.015625)"/>
      <path id="DejaVuSerif-Bold-68" d="M 219 0 
L 219 378 
L 691 378 
L 691 4488 
L 197 4488 
L 197 4863 
L 1797 4863 
L 1797 2853 
Q 1997 3150 2253 3281 
Q 2509 3413 2900 3413 
Q 3459 3413 3745 3083 
Q 4031 2753 4031 2113 
L 4031 378 
L 4506 378 
L 4506 0 
L 2522 0 
L 2522 378 
L 2925 378 
L 2925 2144 
Q 2925 2566 2817 2730 
Q 2709 2894 2444 2894 
Q 2109 2894 1953 2648 
Q 1797 2403 1797 1869 
L 1797 378 
L 2203 378 
L 2203 0 
L 219 0 
z
" transform="scale(0.015625)"/>
      <path id="DejaVuSerif-Bold-6d" d="M 3884 2778 
Q 4116 3109 4384 3261 
Q 4653 3413 5013 3413 
Q 5584 3413 5867 3089 
Q 6150 2766 6150 2113 
L 6150 378 
L 6625 378 
L 6625 0 
L 4647 0 
L 4647 378 
L 5044 378 
L 5044 1947 
Q 5044 2569 4948 2731 
Q 4853 2894 4594 2894 
Q 4300 2894 4137 2667 
Q 3975 2441 3975 2022 
L 3975 378 
L 4372 378 
L 4372 0 
L 2472 0 
L 2472 378 
L 2869 378 
L 2869 1947 
Q 2869 2569 2772 2731 
Q 2675 2894 2419 2894 
Q 2122 2894 1959 2667 
Q 1797 2441 1797 2022 
L 1797 378 
L 2194 378 
L 2194 0 
L 219 0 
L 219 378 
L 691 378 
L 691 2944 
L 219 2944 
L 219 3322 
L 1797 3322 
L 1797 2853 
Q 1991 3144 2241 3278 
Q 2491 3413 2834 3413 
Q 3241 3413 3494 3258 
Q 3747 3103 3884 2778 
z
" transform="scale(0.015625)"/>
      <path id="DejaVuSerif-Bold-34" d="M 4084 0 
L 1516 0 
L 1516 378 
L 2209 378 
L 2209 1228 
L 263 1228 
L 263 1588 
L 2216 4750 
L 3391 4750 
L 3391 1631 
L 4191 1631 
L 4191 1228 
L 3391 1228 
L 3391 378 
L 4084 378 
L 4084 0 
z
M 2209 1631 
L 2209 3897 
L 819 1631 
L 2209 1631 
z
" transform="scale(0.015625)"/>
      <path id="DejaVuSerif-Bold-35" d="M 3609 4666 
L 3609 3847 
L 1113 3847 
L 1113 2822 
Q 1319 2981 1572 3062 
Q 1825 3144 2106 3144 
Q 2969 3144 3469 2708 
Q 3969 2272 3969 1522 
Q 3969 759 3469 334 
Q 2969 -91 2069 -91 
Q 1688 -91 1311 -28 
Q 934 34 525 166 
L 525 1184 
L 900 1184 
Q 919 725 1139 500 
Q 1359 275 1791 275 
Q 2250 275 2472 583 
Q 2694 891 2694 1522 
Q 2694 2144 2476 2451 
Q 2259 2759 1819 2759 
Q 1581 2759 1395 2661 
Q 1209 2563 1050 2356 
L 738 2356 
L 738 4666 
L 3609 4666 
z
" transform="scale(0.015625)"/>
      <path id="DejaVuSerif-Bold-25" d="M 1381 4434 
Q 1181 4434 1093 4217 
Q 1006 4000 1006 3481 
Q 1006 2959 1093 2740 
Q 1181 2522 1381 2522 
Q 1584 2522 1671 2740 
Q 1759 2959 1759 3481 
Q 1759 4000 1671 4217 
Q 1584 4434 1381 4434 
z
M 1381 4750 
Q 1978 4750 2295 4423 
Q 2613 4097 2613 3481 
Q 2613 2866 2295 2537 
Q 1978 2209 1381 2209 
Q 788 2209 470 2537 
Q 153 2866 153 3481 
Q 153 4097 470 4423 
Q 788 4750 1381 4750 
z
M 4231 4750 
L 4769 4750 
L 1850 -91 
L 1313 -91 
L 4231 4750 
z
M 4697 2450 
Q 5294 2450 5609 2123 
Q 5925 1797 5925 1184 
Q 5925 569 5609 239 
Q 5294 -91 4697 -91 
Q 4103 -91 3786 239 
Q 3469 569 3469 1184 
Q 3469 1797 3786 2123 
Q 4103 2450 4697 2450 
z
M 4697 2138 
Q 4494 2138 4406 1920 
Q 4319 1703 4319 1184 
Q 4319 663 4408 444 
Q 4497 225 4697 225 
Q 4900 225 4987 444 
Q 5075 663 5075 1184 
Q 5075 1703 4987 1920 
Q 4900 2138 4697 2138 
z
" transform="scale(0.015625)"/>
     </defs>
     <use xlink:href="#DejaVuSerif-Bold-43"/>
     <use xlink:href="#DejaVuSerif-Bold-61" x="79.589844"/>
     <use xlink:href="#DejaVuSerif-Bold-74" x="144.384766"/>
     <use xlink:href="#DejaVuSerif-Bold-65" x="190.576172"/>
     <use xlink:href="#DejaVuSerif-Bold-67" x="254.199219"/>
     <use xlink:href="#DejaVuSerif-Bold-6f" x="324.121094"/>
     <use xlink:href="#DejaVuSerif-Bold-72" x="390.820312"/>
     <use xlink:href="#DejaVuSerif-Bold-79" x="443.505859"/>
     <use xlink:href="#DejaVuSerif-Bold-20" x="501.611328"/>
     <use xlink:href="#DejaVuSerif-Bold-44" x="536.425781"/>
     <use xlink:href="#DejaVuSerif-Bold-69" x="623.144531"/>
     <use xlink:href="#DejaVuSerif-Bold-73" x="661.132812"/>
     <use xlink:href="#DejaVuSerif-Bold-74" x="717.431641"/>
     <use xlink:href="#DejaVuSerif-Bold-72" x="763.623047"/>
     <use xlink:href="#DejaVuSerif-Bold-69" x="816.308594"/>
     <use xlink:href="#DejaVuSerif-Bold-62" x="854.296875"/>
     <use xlink:href="#DejaVuSerif-Bold-75" x="924.21875"/>
     <use xlink:href="#DejaVuSerif-Bold-74" x="996.923828"/>
     <use xlink:href="#DejaVuSerif-Bold-69" x="1043.115234"/>
     <use xlink:href="#DejaVuSerif-Bold-6f" x="1081.103516"/>
     <use xlink:href="#DejaVuSerif-Bold-6e" x="1147.802734"/>
     <use xlink:href="#DejaVuSerif-Bold-3a" x="1220.507812"/>
     <use xlink:href="#DejaVuSerif-Bold-20" x="1257.421875"/>
     <use xlink:href="#DejaVuSerif-Bold-4d" x="1292.236328"/>
     <use xlink:href="#DejaVuSerif-Bold-61" x="1402.929688"/>
     <use xlink:href="#DejaVuSerif-Bold-74" x="1467.724609"/>
     <use xlink:href="#DejaVuSerif-Bold-68" x="1513.916016"/>
     <use xlink:href="#DejaVuSerif-Bold-20" x="1586.621094"/>
     <use xlink:href="#DejaVuSerif-Bold-44" x="1621.435547"/>
     <use xlink:href="#DejaVuSerif-Bold-6f" x="1708.154297"/>
     <use xlink:href="#DejaVuSerif-Bold-6d" x="1774.853516"/>
     <use xlink:href="#DejaVuSerif-Bold-69" x="1880.664062"/>
     <use xlink:href="#DejaVuSerif-Bold-6e" x="1918.652344"/>
     <use xlink:href="#DejaVuSerif-Bold-61" x="1991.357422"/>
     <use xlink:href="#DejaVuSerif-Bold-74" x="2056.152344"/>
     <use xlink:href="#DejaVuSerif-Bold-65" x="2102.34375"/>
     <use xlink:href="#DejaVuSerif-Bold-73" x="2165.966797"/>
     <use xlink:href="#DejaVuSerif-Bold-20" x="2222.265625"/>
     <use xlink:href="#DejaVuSerif-Bold-61" x="2257.080078"/>
     <use xlink:href="#DejaVuSerif-Bold-74" x="2321.875"/>
     <use xlink:href="#DejaVuSerif-Bold-20" x="2368.066406"/>
     <use xlink:href="#DejaVuSerif-Bold-34" x="2402.880859"/>
     <use xlink:href="#DejaVuSerif-Bold-35" x="2472.460938"/>
     <use xlink:href="#DejaVuSerif-Bold-25" x="2542.041016"/>
    </g>
   </g>
  </g>
 </g>
 <defs>
  <clipPath id="p114b675969">
   <rect x="7.2" y="22.318125" width="694.960921" height="467.28"/>
  </clipPath>
 </defs>
</svg>
