<?xml version="1.0" encoding="utf-8" standalone="no"?>
<!DOCTYPE svg PUBLIC "-//W3C//DTD SVG 1.1//EN"
  "http://www.w3.org/Graphics/SVG/1.1/DTD/svg11.dtd">
<svg xmlns:xlink="http://www.w3.org/1999/xlink" width="554.960183pt" height="567.906673pt" viewBox="0 0 554.960183 567.906673" xmlns="http://www.w3.org/2000/svg" version="1.1">
 <metadata>
  <rdf:RDF xmlns:dc="http://purl.org/dc/elements/1.1/" xmlns:cc="http://creativecommons.org/ns#" xmlns:rdf="http://www.w3.org/1999/02/22-rdf-syntax-ns#">
   <cc:Work>
    <dc:type rdf:resource="http://purl.org/dc/dcmitype/StillImage"/>
    <dc:date>2025-11-29T11:57:39.682910</dc:date>
    <dc:format>image/svg+xml</dc:format>
    <dc:creator>
     <cc:Agent>
      <dc:title>Matplotlib v3.8.2, https://matplotlib.org/</dc:title>
     </cc:Agent>
    </dc:creator>
   </cc:Work>
  </rdf:RDF>
 </metadata>
 <defs>
  <style type="text/css">*{stroke-linejoin: round; stroke-linecap: butt}</style>
 </defs>
 <g id="figure_1">
  <g id="patch_1">
   <path d="M 0 567.906673 
L 554.960183 567.906673 
L 554.960183 0 
L 0 0 
z
" style="fill: #ffffff"/>
  </g>
  <g id="axes_1">
   <g id="patch_2">
    <path d="M 515.438855 299.409873 
C 515.438855 266.647967 508.985474 234.20463 496.448035 203.936576 
C 483.910597 173.668522 465.532922 146.164389 442.366757 122.998223 
C 419.200591 99.832057 391.696458 81.454383 361.428404 68.916945 
C 331.16035 56.379506 298.717013 49.926125 265.955107 49.926125 
C 233.193201 49.926125 200.749864 56.379506 170.48181 68.916945 
C 140.213756 81.454383 112.709623 99.832057 89.543457 122.998223 
C 66.377292 146.164389 47.999617 173.668522 35.462179 203.936576 
C 22.92474 234.20463 16.471359 266.647967 16.471359 299.409873 
C 16.471359 332.171778 22.92474 364.615116 35.462179 394.88317 
C 47.999617 425.151224 66.377292 452.655357 89.543457 475.821523 
C 112.709623 498.987688 140.213756 517.365362 170.48181 529.902801 
C 200.749864 542.440239 233.193201 548.89362 265.955107 548.89362 
C 298.717013 548.89362 331.16035 542.440239 361.428404 529.902801 
C 391.696458 517.365362 419.200591 498.987688 442.366757 475.821523 
C 465.532922 452.655357 483.910597 425.151224 496.448035 394.88317 
C 508.985474 364.615116 515.438855 332.171778 515.438855 299.409873 
M 265.955107 299.409873 
C 265.955107 299.409873 265.955107 299.409873 265.955107 299.409873 
C 265.955107 299.409873 265.955107 299.409873 265.955107 299.409873 
C 265.955107 299.409873 265.955107 299.409873 265.955107 299.409873 
C 265.955107 299.409873 265.955107 299.409873 265.955107 299.409873 
C 265.955107 299.409873 265.955107 299.409873 265.955107 299.409873 
C 265.955107 299.409873 265.955107 299.409873 265.955107 299.409873 
C 265.955107 299.409873 265.955107 299.409873 265.955107 299.409873 
C 265.955107 299.409873 265.955107 299.409873 265.955107 299.409873 
C 265.955107 299.409873 265.955107 299.409873 265.955107 299.409873 
C 265.955107 299.409873 265.955107 299.409873 265.955107 299.409873 
C 265.955107 299.409873 265.955107 299.409873 265.955107 299.409873 
C 265.955107 299.409873 265.955107 299.409873 265.955107 299.409873 
C 265.955107 299.409873 265.955107 299.409873 265.955107 299.409873 
C 265.955107 299.409873 265.955107 299.409873 265.955107 299.409873 
C 265.955107 299.409873 265.955107 299.409873 265.955107 299.409873 
C 265.955107 299.409873 265.955107 299.409873 265.955107 299.409873 
z
" style="fill: #ffffff"/>
   </g>
   <g id="patch_3">
    <path d="M 466.52801 299.409873 
L 407.364718 122.087829 
L 218.757242 92.622515 
L 98.283989 218.663718 
L 151.661672 354.45069 
L 238.028865 421.762734 
L 331.654887 381.79479 
z
" clip-path="url(#pd54fb1a0d1)" style="fill: #2c3e50; opacity: 0.25; stroke: #2c3e50; stroke-linejoin: miter"/>
   </g>
   <g id="matplotlib.axis_1">
    <g id="xtick_1">
     <g id="line2d_1">
      <path d="M 265.955107 299.409873 
L 515.438855 299.409873 
" clip-path="url(#pd54fb1a0d1)" style="fill: none; stroke: #b0b0b0; stroke-width: 0.8; stroke-linecap: square"/>
     </g>
     <g id="text_1">
      <!-- Monday -->
      <g transform="translate(511.117527 301.829326) scale(0.09 -0.09)">
       <defs>
        <path id="DejaVuSerif-4d" d="M 353 0 
L 353 331 
L 947 331 
L 947 4331 
L 319 4331 
L 319 4666 
L 1678 4666 
L 3316 1344 
L 4953 4666 
L 6228 4666 
L 6228 4331 
L 5606 4331 
L 5606 331 
L 6203 331 
L 6203 0 
L 4378 0 
L 4378 331 
L 4972 331 
L 4972 3938 
L 3372 684 
L 2931 684 
L 1331 3938 
L 1331 331 
L 1925 331 
L 1925 0 
L 353 0 
z
" transform="scale(0.015625)"/>
        <path id="DejaVuSerif-6f" d="M 1925 219 
Q 2388 219 2623 584 
Q 2859 950 2859 1663 
Q 2859 2375 2623 2739 
Q 2388 3103 1925 3103 
Q 1463 3103 1227 2739 
Q 991 2375 991 1663 
Q 991 950 1228 584 
Q 1466 219 1925 219 
z
M 1925 -91 
Q 1200 -91 759 389 
Q 319 869 319 1663 
Q 319 2456 758 2934 
Q 1197 3413 1925 3413 
Q 2653 3413 3092 2934 
Q 3531 2456 3531 1663 
Q 3531 869 3092 389 
Q 2653 -91 1925 -91 
z
" transform="scale(0.015625)"/>
        <path id="DejaVuSerif-6e" d="M 263 0 
L 263 331 
L 781 331 
L 781 2988 
L 231 2988 
L 231 3322 
L 1356 3322 
L 1356 2731 
Q 1516 3069 1770 3241 
Q 2025 3413 2363 3413 
Q 2913 3413 3172 3097 
Q 3431 2781 3431 2113 
L 3431 331 
L 3944 331 
L 3944 0 
L 2356 0 
L 2356 331 
L 2853 331 
L 2853 1931 
Q 2853 2541 2703 2767 
Q 2553 2994 2175 2994 
Q 1775 2994 1565 2701 
Q 1356 2409 1356 1850 
L 1356 331 
L 1856 331 
L 1856 0 
L 263 0 
z
" transform="scale(0.015625)"/>
        <path id="DejaVuSerif-64" d="M 3359 331 
L 3909 331 
L 3909 0 
L 2784 0 
L 2784 519 
Q 2616 206 2355 57 
Q 2094 -91 1709 -91 
Q 1097 -91 708 395 
Q 319 881 319 1663 
Q 319 2444 706 2928 
Q 1094 3413 1709 3413 
Q 2094 3413 2355 3264 
Q 2616 3116 2784 2803 
L 2784 4531 
L 2241 4531 
L 2241 4863 
L 3359 4863 
L 3359 331 
z
M 2784 1497 
L 2784 1825 
Q 2784 2422 2554 2737 
Q 2325 3053 1888 3053 
Q 1444 3053 1217 2703 
Q 991 2353 991 1663 
Q 991 975 1217 622 
Q 1444 269 1888 269 
Q 2325 269 2554 583 
Q 2784 897 2784 1497 
z
" transform="scale(0.015625)"/>
        <path id="DejaVuSerif-61" d="M 2547 1044 
L 2547 1747 
L 1806 1747 
Q 1378 1747 1168 1562 
Q 959 1378 959 997 
Q 959 650 1171 447 
Q 1384 244 1747 244 
Q 2106 244 2326 466 
Q 2547 688 2547 1044 
z
M 3122 2075 
L 3122 331 
L 3634 331 
L 3634 0 
L 2547 0 
L 2547 359 
Q 2356 128 2106 18 
Q 1856 -91 1522 -91 
Q 969 -91 644 203 
Q 319 497 319 997 
Q 319 1513 691 1797 
Q 1063 2081 1741 2081 
L 2547 2081 
L 2547 2309 
Q 2547 2688 2317 2895 
Q 2088 3103 1672 3103 
Q 1328 3103 1125 2947 
Q 922 2791 872 2484 
L 575 2484 
L 575 3156 
Q 875 3284 1158 3348 
Q 1441 3413 1709 3413 
Q 2400 3413 2761 3070 
Q 3122 2728 3122 2075 
z
" transform="scale(0.015625)"/>
        <path id="DejaVuSerif-79" d="M 1381 -609 
L 1600 -56 
L 359 2988 
L -19 2988 
L -19 3322 
L 1509 3322 
L 1509 2988 
L 978 2988 
L 1913 703 
L 2847 2988 
L 2350 2988 
L 2350 3322 
L 3597 3322 
L 3597 2988 
L 3225 2988 
L 1703 -750 
Q 1547 -1138 1356 -1280 
Q 1166 -1422 819 -1422 
Q 672 -1422 517 -1397 
Q 363 -1372 206 -1325 
L 206 -691 
L 500 -691 
Q 519 -903 608 -995 
Q 697 -1088 884 -1088 
Q 1056 -1088 1161 -992 
Q 1266 -897 1381 -609 
z
" transform="scale(0.015625)"/>
       </defs>
       <use xlink:href="#DejaVuSerif-4d"/>
       <use xlink:href="#DejaVuSerif-6f" x="102.392578"/>
       <use xlink:href="#DejaVuSerif-6e" x="162.597656"/>
       <use xlink:href="#DejaVuSerif-64" x="227.001953"/>
       <use xlink:href="#DejaVuSerif-61" x="291.015625"/>
       <use xlink:href="#DejaVuSerif-79" x="350.634766"/>
      </g>
     </g>
    </g>
    <g id="xtick_2">
     <g id="line2d_2">
      <path d="M 265.955107 299.409873 
L 421.505679 104.355624 
" clip-path="url(#pd54fb1a0d1)" style="fill: none; stroke: #b0b0b0; stroke-width: 0.8; stroke-linecap: square"/>
     </g>
     <g id="text_2">
      <!-- Tuesday -->
      <g transform="translate(411.255787 95.829437) scale(0.09 -0.09)">
       <defs>
        <path id="DejaVuSerif-54" d="M 1222 0 
L 1222 331 
L 1819 331 
L 1819 4294 
L 447 4294 
L 447 3566 
L 63 3566 
L 63 4666 
L 4206 4666 
L 4206 3566 
L 3822 3566 
L 3822 4294 
L 2450 4294 
L 2450 331 
L 3047 331 
L 3047 0 
L 1222 0 
z
" transform="scale(0.015625)"/>
        <path id="DejaVuSerif-75" d="M 2266 3322 
L 3341 3322 
L 3341 331 
L 3884 331 
L 3884 0 
L 2766 0 
L 2766 588 
Q 2606 256 2353 82 
Q 2100 -91 1766 -91 
Q 1213 -91 952 223 
Q 691 538 691 1209 
L 691 2988 
L 172 2988 
L 172 3322 
L 1269 3322 
L 1269 1388 
Q 1269 781 1417 556 
Q 1566 331 1947 331 
Q 2347 331 2556 625 
Q 2766 919 2766 1478 
L 2766 2988 
L 2266 2988 
L 2266 3322 
z
" transform="scale(0.015625)"/>
        <path id="DejaVuSerif-65" d="M 3469 1600 
L 991 1600 
L 991 1575 
Q 991 903 1244 561 
Q 1497 219 1991 219 
Q 2369 219 2611 417 
Q 2853 616 2950 1006 
L 3413 1006 
Q 3275 459 2904 184 
Q 2534 -91 1931 -91 
Q 1203 -91 761 389 
Q 319 869 319 1663 
Q 319 2450 753 2931 
Q 1188 3413 1894 3413 
Q 2647 3413 3050 2948 
Q 3453 2484 3469 1600 
z
M 2791 1931 
Q 2772 2513 2545 2808 
Q 2319 3103 1894 3103 
Q 1497 3103 1269 2806 
Q 1041 2509 991 1931 
L 2791 1931 
z
" transform="scale(0.015625)"/>
        <path id="DejaVuSerif-73" d="M 359 184 
L 359 959 
L 691 959 
Q 703 588 923 403 
Q 1144 219 1575 219 
Q 1963 219 2166 364 
Q 2369 509 2369 788 
Q 2369 1006 2220 1140 
Q 2072 1275 1594 1428 
L 1178 1569 
Q 750 1706 558 1912 
Q 366 2119 366 2438 
Q 366 2894 700 3153 
Q 1034 3413 1625 3413 
Q 1888 3413 2178 3344 
Q 2469 3275 2778 3144 
L 2778 2419 
L 2447 2419 
Q 2434 2741 2221 2922 
Q 2009 3103 1644 3103 
Q 1281 3103 1095 2975 
Q 909 2847 909 2591 
Q 909 2381 1050 2254 
Q 1191 2128 1613 1997 
L 2069 1856 
Q 2541 1709 2748 1489 
Q 2956 1269 2956 922 
Q 2956 450 2595 179 
Q 2234 -91 1600 -91 
Q 1278 -91 972 -22 
Q 666 47 359 184 
z
" transform="scale(0.015625)"/>
       </defs>
       <use xlink:href="#DejaVuSerif-54"/>
       <use xlink:href="#DejaVuSerif-75" x="66.699219"/>
       <use xlink:href="#DejaVuSerif-65" x="131.103516"/>
       <use xlink:href="#DejaVuSerif-73" x="190.283203"/>
       <use xlink:href="#DejaVuSerif-64" x="241.601562"/>
       <use xlink:href="#DejaVuSerif-61" x="305.615234"/>
       <use xlink:href="#DejaVuSerif-79" x="365.234375"/>
      </g>
     </g>
    </g>
    <g id="xtick_3">
     <g id="line2d_3">
      <path d="M 265.955107 299.409873 
L 210.43975 56.181203 
" clip-path="url(#pd54fb1a0d1)" style="fill: none; stroke: #b0b0b0; stroke-width: 0.8; stroke-linecap: square"/>
     </g>
     <g id="text_3">
      <!-- Wednesday -->
      <g transform="translate(181.543676 44.951666) scale(0.09 -0.09)">
       <defs>
        <path id="DejaVuSerif-57" d="M 4878 0 
L 4366 0 
L 3297 3794 
L 2228 0 
L 1716 0 
L 494 4331 
L 31 4331 
L 31 4666 
L 1734 4666 
L 1734 4331 
L 1153 4331 
L 2125 884 
L 3188 4666 
L 3694 4666 
L 4775 844 
L 5753 4331 
L 5216 4331 
L 5216 4666 
L 6559 4666 
L 6559 4331 
L 6100 4331 
L 4878 0 
z
" transform="scale(0.015625)"/>
       </defs>
       <use xlink:href="#DejaVuSerif-57"/>
       <use xlink:href="#DejaVuSerif-65" x="94.658203"/>
       <use xlink:href="#DejaVuSerif-64" x="153.837891"/>
       <use xlink:href="#DejaVuSerif-6e" x="217.851562"/>
       <use xlink:href="#DejaVuSerif-65" x="282.255859"/>
       <use xlink:href="#DejaVuSerif-73" x="341.435547"/>
       <use xlink:href="#DejaVuSerif-64" x="392.753906"/>
       <use xlink:href="#DejaVuSerif-61" x="456.767578"/>
       <use xlink:href="#DejaVuSerif-79" x="516.386719"/>
      </g>
     </g>
    </g>
    <g id="xtick_4">
     <g id="line2d_4">
      <path d="M 265.955107 299.409873 
L 41.178017 191.162931 
" clip-path="url(#pd54fb1a0d1)" style="fill: none; stroke: #b0b0b0; stroke-width: 0.8; stroke-linecap: square"/>
     </g>
     <g id="text_4">
      <!-- Thursday -->
      <g transform="translate(7.2 187.508012) scale(0.09 -0.09)">
       <defs>
        <path id="DejaVuSerif-68" d="M 263 0 
L 263 331 
L 781 331 
L 781 4531 
L 231 4531 
L 231 4863 
L 1356 4863 
L 1356 2731 
Q 1516 3069 1770 3241 
Q 2025 3413 2363 3413 
Q 2913 3413 3172 3097 
Q 3431 2781 3431 2113 
L 3431 331 
L 3944 331 
L 3944 0 
L 2356 0 
L 2356 331 
L 2853 331 
L 2853 1931 
Q 2853 2541 2704 2764 
Q 2556 2988 2175 2988 
Q 1775 2988 1565 2697 
Q 1356 2406 1356 1850 
L 1356 331 
L 1856 331 
L 1856 0 
L 263 0 
z
" transform="scale(0.015625)"/>
        <path id="DejaVuSerif-72" d="M 3059 3328 
L 3059 2497 
L 2728 2497 
Q 2713 2744 2591 2866 
Q 2469 2988 2234 2988 
Q 1809 2988 1582 2694 
Q 1356 2400 1356 1850 
L 1356 331 
L 2022 331 
L 2022 0 
L 263 0 
L 263 331 
L 781 331 
L 781 2994 
L 231 2994 
L 231 3322 
L 1356 3322 
L 1356 2731 
Q 1525 3078 1790 3245 
Q 2056 3413 2438 3413 
Q 2578 3413 2733 3391 
Q 2888 3369 3059 3328 
z
" transform="scale(0.015625)"/>
       </defs>
       <use xlink:href="#DejaVuSerif-54"/>
       <use xlink:href="#DejaVuSerif-68" x="66.699219"/>
       <use xlink:href="#DejaVuSerif-75" x="131.103516"/>
       <use xlink:href="#DejaVuSerif-72" x="195.507812"/>
       <use xlink:href="#DejaVuSerif-73" x="243.310547"/>
       <use xlink:href="#DejaVuSerif-64" x="294.628906"/>
       <use xlink:href="#DejaVuSerif-61" x="358.642578"/>
       <use xlink:href="#DejaVuSerif-79" x="418.261719"/>
      </g>
     </g>
    </g>
    <g id="xtick_5">
     <g id="line2d_5">
      <path d="M 265.955107 299.409873 
L 41.178017 407.656814 
" clip-path="url(#pd54fb1a0d1)" style="fill: none; stroke: #b0b0b0; stroke-width: 0.8; stroke-linecap: square"/>
     </g>
     <g id="text_5">
      <!-- Friday -->
      <g transform="translate(13.745391 416.150639) scale(0.09 -0.09)">
       <defs>
        <path id="DejaVuSerif-46" d="M 353 0 
L 353 331 
L 947 331 
L 947 4331 
L 353 4331 
L 353 4666 
L 4172 4666 
L 4172 3628 
L 3788 3628 
L 3788 4281 
L 1581 4281 
L 1581 2719 
L 3175 2719 
L 3175 3303 
L 3559 3303 
L 3559 1753 
L 3175 1753 
L 3175 2338 
L 1581 2338 
L 1581 331 
L 2328 331 
L 2328 0 
L 353 0 
z
" transform="scale(0.015625)"/>
        <path id="DejaVuSerif-69" d="M 622 4353 
Q 622 4497 726 4603 
Q 831 4709 978 4709 
Q 1122 4709 1226 4603 
Q 1331 4497 1331 4353 
Q 1331 4206 1228 4103 
Q 1125 4000 978 4000 
Q 831 4000 726 4103 
Q 622 4206 622 4353 
z
M 1356 331 
L 1900 331 
L 1900 0 
L 231 0 
L 231 331 
L 781 331 
L 781 2988 
L 231 2988 
L 231 3322 
L 1356 3322 
L 1356 331 
z
" transform="scale(0.015625)"/>
       </defs>
       <use xlink:href="#DejaVuSerif-46"/>
       <use xlink:href="#DejaVuSerif-72" x="69.384766"/>
       <use xlink:href="#DejaVuSerif-69" x="117.1875"/>
       <use xlink:href="#DejaVuSerif-64" x="149.169922"/>
       <use xlink:href="#DejaVuSerif-61" x="213.183594"/>
       <use xlink:href="#DejaVuSerif-79" x="272.802734"/>
      </g>
     </g>
    </g>
    <g id="xtick_6">
     <g id="line2d_6">
      <path d="M 265.955107 299.409873 
L 210.43975 542.638542 
" clip-path="url(#pd54fb1a0d1)" style="fill: none; stroke: #b0b0b0; stroke-width: 0.8; stroke-linecap: square"/>
     </g>
     <g id="text_6">
      <!-- Saturday -->
      <g transform="translate(186.594926 558.706986) scale(0.09 -0.09)">
       <defs>
        <path id="DejaVuSerif-53" d="M 594 225 
L 594 1288 
L 953 1284 
Q 969 753 1261 498 
Q 1553 244 2150 244 
Q 2706 244 2998 464 
Q 3291 684 3291 1106 
Q 3291 1444 3114 1625 
Q 2938 1806 2369 1978 
L 1753 2163 
Q 1084 2366 811 2669 
Q 538 2972 538 3500 
Q 538 4094 959 4422 
Q 1381 4750 2144 4750 
Q 2469 4750 2856 4679 
Q 3244 4609 3681 4475 
L 3681 3481 
L 3328 3481 
Q 3275 3975 2998 4195 
Q 2722 4416 2156 4416 
Q 1663 4416 1405 4214 
Q 1147 4013 1147 3628 
Q 1147 3294 1340 3103 
Q 1534 2913 2163 2725 
L 2741 2553 
Q 3375 2363 3645 2067 
Q 3916 1772 3916 1275 
Q 3916 597 3481 253 
Q 3047 -91 2188 -91 
Q 1803 -91 1404 -12 
Q 1006 66 594 225 
z
" transform="scale(0.015625)"/>
        <path id="DejaVuSerif-74" d="M 691 2988 
L 184 2988 
L 184 3322 
L 691 3322 
L 691 4353 
L 1269 4353 
L 1269 3322 
L 2350 3322 
L 2350 2988 
L 1269 2988 
L 1269 878 
Q 1269 456 1350 337 
Q 1431 219 1650 219 
Q 1875 219 1978 351 
Q 2081 484 2088 781 
L 2522 781 
Q 2497 328 2275 118 
Q 2053 -91 1600 -91 
Q 1103 -91 897 129 
Q 691 350 691 878 
L 691 2988 
z
" transform="scale(0.015625)"/>
       </defs>
       <use xlink:href="#DejaVuSerif-53"/>
       <use xlink:href="#DejaVuSerif-61" x="68.505859"/>
       <use xlink:href="#DejaVuSerif-74" x="128.125"/>
       <use xlink:href="#DejaVuSerif-75" x="168.310547"/>
       <use xlink:href="#DejaVuSerif-72" x="232.714844"/>
       <use xlink:href="#DejaVuSerif-64" x="280.517578"/>
       <use xlink:href="#DejaVuSerif-61" x="344.53125"/>
       <use xlink:href="#DejaVuSerif-79" x="404.150391"/>
      </g>
     </g>
    </g>
    <g id="xtick_7">
     <g id="line2d_7">
      <path d="M 265.955107 299.409873 
L 421.505679 494.464121 
" clip-path="url(#pd54fb1a0d1)" style="fill: none; stroke: #b0b0b0; stroke-width: 0.8; stroke-linecap: square"/>
     </g>
     <g id="text_7">
      <!-- Sunday -->
      <g transform="translate(413.249146 507.829215) scale(0.09 -0.09)">
       <use xlink:href="#DejaVuSerif-53"/>
       <use xlink:href="#DejaVuSerif-75" x="68.505859"/>
       <use xlink:href="#DejaVuSerif-6e" x="132.910156"/>
       <use xlink:href="#DejaVuSerif-64" x="197.314453"/>
       <use xlink:href="#DejaVuSerif-61" x="261.328125"/>
       <use xlink:href="#DejaVuSerif-79" x="320.947266"/>
      </g>
     </g>
    </g>
   </g>
   <g id="matplotlib.axis_2">
    <g id="ytick_1">
     <g id="line2d_8">
      <path d="M 311.180113 299.409873 
C 311.180113 293.470979 310.010281 287.589834 307.737565 282.103012 
C 305.464849 276.61619 302.133448 271.630396 297.934016 267.430964 
C 293.734584 263.231532 288.74879 259.900131 283.261968 257.627415 
C 277.775146 255.354699 271.894 254.184866 265.955107 254.184866 
C 260.016214 254.184866 254.135068 255.354699 248.648246 257.627415 
C 243.161424 259.900131 238.17563 263.231532 233.976198 267.430964 
C 229.776767 271.630396 226.445365 276.61619 224.172649 282.103012 
C 221.899933 287.589834 220.730101 293.470979 220.730101 299.409873 
C 220.730101 305.348766 221.899933 311.229911 224.172649 316.716733 
C 226.445365 322.203555 229.776767 327.18935 233.976198 331.388781 
C 238.17563 335.588213 243.161424 338.919614 248.648246 341.19233 
C 254.135068 343.465047 260.016214 344.634879 265.955107 344.634879 
C 271.894 344.634879 277.775146 343.465047 283.261968 341.19233 
C 288.74879 338.919614 293.734584 335.588213 297.934016 331.388781 
C 302.133448 327.18935 305.464849 322.203555 307.737565 316.716733 
C 310.010281 311.229911 311.180113 305.348766 311.180113 299.409873 
" clip-path="url(#pd54fb1a0d1)" style="fill: none; stroke: #b0b0b0; stroke-width: 0.8; stroke-linecap: square"/>
     </g>
     <g id="text_8">
      <!-- 200 -->
      <g transform="translate(307.737565 280.231293) scale(0.09 -0.09)">
       <defs>
        <path id="DejaVuSerif-32" d="M 819 3553 
L 469 3553 
L 469 4384 
Q 803 4563 1142 4656 
Q 1481 4750 1806 4750 
Q 2534 4750 2956 4397 
Q 3378 4044 3378 3438 
Q 3378 2753 2422 1800 
Q 2347 1728 2309 1691 
L 1131 513 
L 3078 513 
L 3078 1088 
L 3444 1088 
L 3444 0 
L 434 0 
L 434 341 
L 1850 1753 
Q 2319 2222 2519 2614 
Q 2719 3006 2719 3438 
Q 2719 3909 2473 4175 
Q 2228 4441 1797 4441 
Q 1350 4441 1106 4219 
Q 863 3997 819 3553 
z
" transform="scale(0.015625)"/>
        <path id="DejaVuSerif-30" d="M 2034 219 
Q 2513 219 2750 744 
Q 2988 1269 2988 2328 
Q 2988 3391 2750 3916 
Q 2513 4441 2034 4441 
Q 1556 4441 1318 3916 
Q 1081 3391 1081 2328 
Q 1081 1269 1318 744 
Q 1556 219 2034 219 
z
M 2034 -91 
Q 1275 -91 848 546 
Q 422 1184 422 2328 
Q 422 3475 848 4112 
Q 1275 4750 2034 4750 
Q 2797 4750 3222 4112 
Q 3647 3475 3647 2328 
Q 3647 1184 3222 546 
Q 2797 -91 2034 -91 
z
" transform="scale(0.015625)"/>
       </defs>
       <use xlink:href="#DejaVuSerif-32"/>
       <use xlink:href="#DejaVuSerif-30" x="63.623047"/>
       <use xlink:href="#DejaVuSerif-30" x="127.246094"/>
      </g>
     </g>
    </g>
    <g id="ytick_2">
     <g id="line2d_9">
      <path d="M 356.40512 299.409873 
C 356.40512 287.532086 354.065455 275.769796 349.520023 264.796151 
C 344.97459 253.822507 338.311788 243.850919 329.912924 235.452055 
C 321.514061 227.053192 311.542473 220.390389 300.568828 215.844957 
C 289.595184 211.299525 277.832894 208.95986 265.955107 208.95986 
C 254.07732 208.95986 242.31503 211.299525 231.341386 215.844957 
C 220.367742 220.390389 210.396153 227.053192 201.99729 235.452055 
C 193.598426 243.850919 186.935624 253.822507 182.390192 264.796151 
C 177.844759 275.769796 175.505094 287.532086 175.505094 299.409873 
C 175.505094 311.28766 177.844759 323.04995 182.390192 334.023594 
C 186.935624 344.997238 193.598426 354.968826 201.99729 363.36769 
C 210.396153 371.766554 220.367742 378.429356 231.341386 382.974788 
C 242.31503 387.52022 254.07732 389.859885 265.955107 389.859885 
C 277.832894 389.859885 289.595184 387.52022 300.568828 382.974788 
C 311.542473 378.429356 321.514061 371.766554 329.912924 363.36769 
C 338.311788 354.968826 344.97459 344.997238 349.520023 334.023594 
C 354.065455 323.04995 356.40512 311.28766 356.40512 299.409873 
" clip-path="url(#pd54fb1a0d1)" style="fill: none; stroke: #b0b0b0; stroke-width: 0.8; stroke-linecap: square"/>
     </g>
     <g id="text_9">
      <!-- 400 -->
      <g transform="translate(349.520023 262.924433) scale(0.09 -0.09)">
       <defs>
        <path id="DejaVuSerif-34" d="M 2234 1581 
L 2234 4063 
L 641 1581 
L 2234 1581 
z
M 3609 0 
L 1484 0 
L 1484 331 
L 2234 331 
L 2234 1247 
L 197 1247 
L 197 1588 
L 2241 4750 
L 2859 4750 
L 2859 1581 
L 3750 1581 
L 3750 1247 
L 2859 1247 
L 2859 331 
L 3609 331 
L 3609 0 
z
" transform="scale(0.015625)"/>
       </defs>
       <use xlink:href="#DejaVuSerif-34"/>
       <use xlink:href="#DejaVuSerif-30" x="63.623047"/>
       <use xlink:href="#DejaVuSerif-30" x="127.246094"/>
      </g>
     </g>
    </g>
    <g id="ytick_3">
     <g id="line2d_10">
      <path d="M 401.630126 299.409873 
C 401.630126 281.593192 398.120629 263.949757 391.30248 247.489291 
C 384.484332 231.028824 374.490129 216.071442 361.891833 203.473147 
C 349.293538 190.874851 334.336155 180.880648 317.875689 174.062499 
C 301.415223 167.244351 283.771787 163.734854 265.955107 163.734854 
C 248.138427 163.734854 230.494991 167.244351 214.034525 174.062499 
C 197.574059 180.880648 182.616676 190.874851 170.018381 203.473147 
C 157.420085 216.071442 147.425882 231.028824 140.607734 247.489291 
C 133.789585 263.949757 130.280088 281.593192 130.280088 299.409873 
C 130.280088 317.226553 133.789585 334.869988 140.607734 351.330455 
C 147.425882 367.790921 157.420085 382.748303 170.018381 395.346599 
C 182.616676 407.944894 197.574059 417.939098 214.034525 424.757246 
C 230.494991 431.575394 248.138427 435.084892 265.955107 435.084892 
C 283.771787 435.084892 301.415223 431.575394 317.875689 424.757246 
C 334.336155 417.939098 349.293538 407.944894 361.891833 395.346599 
C 374.490129 382.748303 384.484332 367.790921 391.30248 351.330455 
C 398.120629 334.869988 401.630126 317.226553 401.630126 299.409873 
" clip-path="url(#pd54fb1a0d1)" style="fill: none; stroke: #b0b0b0; stroke-width: 0.8; stroke-linecap: square"/>
     </g>
     <g id="text_10">
      <!-- 600 -->
      <g transform="translate(391.30248 245.617572) scale(0.09 -0.09)">
       <defs>
        <path id="DejaVuSerif-36" d="M 2094 219 
Q 2534 219 2771 542 
Q 3009 866 3009 1472 
Q 3009 2078 2771 2401 
Q 2534 2725 2094 2725 
Q 1647 2725 1412 2412 
Q 1178 2100 1178 1509 
Q 1178 888 1415 553 
Q 1653 219 2094 219 
z
M 1075 2569 
Q 1288 2803 1556 2918 
Q 1825 3034 2163 3034 
Q 2859 3034 3264 2615 
Q 3669 2197 3669 1472 
Q 3669 763 3233 336 
Q 2797 -91 2069 -91 
Q 1278 -91 853 498 
Q 428 1088 428 2181 
Q 428 3406 931 4078 
Q 1434 4750 2350 4750 
Q 2597 4750 2869 4703 
Q 3141 4656 3425 4563 
L 3425 3794 
L 3072 3794 
Q 3034 4109 2831 4275 
Q 2628 4441 2284 4441 
Q 1678 4441 1381 3981 
Q 1084 3522 1075 2569 
z
" transform="scale(0.015625)"/>
       </defs>
       <use xlink:href="#DejaVuSerif-36"/>
       <use xlink:href="#DejaVuSerif-30" x="63.623047"/>
       <use xlink:href="#DejaVuSerif-30" x="127.246094"/>
      </g>
     </g>
    </g>
    <g id="ytick_4">
     <g id="line2d_11">
      <path d="M 446.855133 299.409873 
C 446.855133 275.654299 442.175803 252.129718 433.084938 230.18243 
C 423.994074 208.235142 410.668469 188.291965 393.870742 171.494238 
C 377.073015 154.696511 357.129838 141.370906 335.18255 132.280042 
C 313.235261 123.189177 289.710681 118.509847 265.955107 118.509847 
C 242.199533 118.509847 218.674953 123.189177 196.727664 132.280042 
C 174.780376 141.370906 154.837199 154.696511 138.039472 171.494238 
C 121.241745 188.291965 107.91614 208.235142 98.825276 230.18243 
C 89.734412 252.129718 85.055081 275.654299 85.055081 299.409873 
C 85.055081 323.165446 89.734412 346.690027 98.825276 368.637315 
C 107.91614 390.584604 121.241745 410.52778 138.039472 427.325507 
C 154.837199 444.123235 174.780376 457.448839 196.727664 466.539704 
C 218.674953 475.630568 242.199533 480.309898 265.955107 480.309898 
C 289.710681 480.309898 313.235261 475.630568 335.18255 466.539704 
C 357.129838 457.448839 377.073015 444.123235 393.870742 427.325507 
C 410.668469 410.52778 423.994074 390.584604 433.084938 368.637315 
C 442.175803 346.690027 446.855133 323.165446 446.855133 299.409873 
" clip-path="url(#pd54fb1a0d1)" style="fill: none; stroke: #b0b0b0; stroke-width: 0.8; stroke-linecap: square"/>
     </g>
     <g id="text_11">
      <!-- 800 -->
      <g transform="translate(433.084938 228.310711) scale(0.09 -0.09)">
       <defs>
        <path id="DejaVuSerif-38" d="M 2981 1275 
Q 2981 1775 2732 2051 
Q 2484 2328 2034 2328 
Q 1584 2328 1336 2051 
Q 1088 1775 1088 1275 
Q 1088 772 1336 495 
Q 1584 219 2034 219 
Q 2484 219 2732 495 
Q 2981 772 2981 1275 
z
M 2853 3541 
Q 2853 3966 2637 4203 
Q 2422 4441 2034 4441 
Q 1650 4441 1433 4203 
Q 1216 3966 1216 3541 
Q 1216 3113 1433 2875 
Q 1650 2638 2034 2638 
Q 2422 2638 2637 2875 
Q 2853 3113 2853 3541 
z
M 2516 2484 
Q 3047 2413 3344 2092 
Q 3641 1772 3641 1275 
Q 3641 619 3225 264 
Q 2809 -91 2034 -91 
Q 1263 -91 845 264 
Q 428 619 428 1275 
Q 428 1772 725 2092 
Q 1022 2413 1556 2484 
Q 1084 2569 832 2842 
Q 581 3116 581 3541 
Q 581 4103 968 4426 
Q 1356 4750 2034 4750 
Q 2713 4750 3100 4426 
Q 3488 4103 3488 3541 
Q 3488 3116 3236 2842 
Q 2984 2569 2516 2484 
z
" transform="scale(0.015625)"/>
       </defs>
       <use xlink:href="#DejaVuSerif-38"/>
       <use xlink:href="#DejaVuSerif-30" x="63.623047"/>
       <use xlink:href="#DejaVuSerif-30" x="127.246094"/>
      </g>
     </g>
    </g>
    <g id="ytick_5">
     <g id="line2d_12">
      <path d="M 492.080139 299.409873 
C 492.080139 269.715406 486.230976 240.30968 474.867396 212.875569 
C 463.503815 185.441459 446.84681 160.512488 425.84965 139.515329 
C 404.852491 118.51817 379.923521 101.861165 352.48941 90.497584 
C 325.0553 79.134003 295.649574 73.284841 265.955107 73.284841 
C 236.26064 73.284841 206.854914 79.134003 179.420804 90.497584 
C 151.986693 101.861165 127.057723 118.51817 106.060564 139.515329 
C 85.063404 160.512488 68.406399 185.441459 57.042818 212.875569 
C 45.679238 240.30968 39.830075 269.715406 39.830075 299.409873 
C 39.830075 329.10434 45.679238 358.510066 57.042818 385.944176 
C 68.406399 413.378286 85.063404 438.307257 106.060564 459.304416 
C 127.057723 480.301575 151.986693 496.958581 179.420804 508.322161 
C 206.854914 519.685742 236.26064 525.534905 265.955107 525.534905 
C 295.649574 525.534905 325.0553 519.685742 352.48941 508.322161 
C 379.923521 496.958581 404.852491 480.301575 425.84965 459.304416 
C 446.84681 438.307257 463.503815 413.378286 474.867396 385.944176 
C 486.230976 358.510066 492.080139 329.10434 492.080139 299.409873 
" clip-path="url(#pd54fb1a0d1)" style="fill: none; stroke: #b0b0b0; stroke-width: 0.8; stroke-linecap: square"/>
     </g>
     <g id="text_12">
      <!-- 1000 -->
      <g transform="translate(474.867396 211.003851) scale(0.09 -0.09)">
       <defs>
        <path id="DejaVuSerif-31" d="M 909 0 
L 909 331 
L 1722 331 
L 1722 4213 
L 781 3603 
L 781 4013 
L 1919 4750 
L 2350 4750 
L 2350 331 
L 3163 331 
L 3163 0 
L 909 0 
z
" transform="scale(0.015625)"/>
       </defs>
       <use xlink:href="#DejaVuSerif-31"/>
       <use xlink:href="#DejaVuSerif-30" x="63.623047"/>
       <use xlink:href="#DejaVuSerif-30" x="127.246094"/>
       <use xlink:href="#DejaVuSerif-30" x="190.869141"/>
      </g>
     </g>
    </g>
   </g>
   <g id="line2d_13">
    <path d="M 466.52801 299.409873 
L 407.364718 122.087829 
L 218.757242 92.622515 
L 98.283989 218.663718 
L 151.661672 354.45069 
L 238.028865 421.762734 
L 331.654887 381.79479 
L 466.52801 299.409873 
" clip-path="url(#pd54fb1a0d1)" style="fill: none; stroke: #2c3e50; stroke-width: 2; stroke-linecap: square"/>
    <defs>
     <path id="mf0f13ceee4" d="M 0 3 
C 0.795609 3 1.55874 2.683901 2.12132 2.12132 
C 2.683901 1.55874 3 0.795609 3 0 
C 3 -0.795609 2.683901 -1.55874 2.12132 -2.12132 
C 1.55874 -2.683901 0.795609 -3 0 -3 
C -0.795609 -3 -1.55874 -2.683901 -2.12132 -2.12132 
C -2.683901 -1.55874 -3 -0.795609 -3 0 
C -3 0.795609 -2.683901 1.55874 -2.12132 2.12132 
C -1.55874 2.683901 -0.795609 3 0 3 
z
" style="stroke: #2c3e50"/>
    </defs>
    <g clip-path="url(#pd54fb1a0d1)">
     <use xlink:href="#mf0f13ceee4" x="466.52801" y="299.409873" style="fill: #2c3e50; stroke: #2c3e50"/>
     <use xlink:href="#mf0f13ceee4" x="407.364718" y="122.087829" style="fill: #2c3e50; stroke: #2c3e50"/>
     <use xlink:href="#mf0f13ceee4" x="218.757242" y="92.622515" style="fill: #2c3e50; stroke: #2c3e50"/>
     <use xlink:href="#mf0f13ceee4" x="98.283989" y="218.663718" style="fill: #2c3e50; stroke: #2c3e50"/>
     <use xlink:href="#mf0f13ceee4" x="151.661672" y="354.45069" style="fill: #2c3e50; stroke: #2c3e50"/>
     <use xlink:href="#mf0f13ceee4" x="238.028865" y="421.762734" style="fill: #2c3e50; stroke: #2c3e50"/>
     <use xlink:href="#mf0f13ceee4" x="331.654887" y="381.79479" style="fill: #2c3e50; stroke: #2c3e50"/>
     <use xlink:href="#mf0f13ceee4" x="466.52801" y="299.409873" style="fill: #2c3e50; stroke: #2c3e50"/>
    </g>
   </g>
   <g id="patch_4">
    <path d="M 515.438855 299.409873 
C 515.438855 266.647967 508.985474 234.20463 496.448035 203.936576 
C 483.910597 173.668522 465.532922 146.164389 442.366757 122.998223 
C 419.200591 99.832057 391.696458 81.454383 361.428404 68.916945 
C 331.16035 56.379506 298.717013 49.926125 265.955107 49.926125 
C 233.193201 49.926125 200.749864 56.379506 170.48181 68.916945 
C 140.213756 81.454383 112.709623 99.832057 89.543457 122.998223 
C 66.377292 146.164389 47.999617 173.668522 35.462179 203.936576 
C 22.92474 234.20463 16.471359 266.647967 16.471359 299.409873 
C 16.471359 332.171778 22.92474 364.615116 35.462179 394.88317 
C 47.999617 425.151224 66.377292 452.655357 89.543457 475.821523 
C 112.709623 498.987688 140.213756 517.365362 170.48181 529.902801 
C 200.749864 542.440239 233.193201 548.89362 265.955107 548.89362 
C 298.717013 548.89362 331.16035 542.440239 361.428404 529.902801 
C 391.696458 517.365362 419.200591 498.987688 442.366757 475.821523 
C 465.532922 452.655357 483.910597 425.151224 496.448035 394.88317 
C 508.985474 364.615116 515.438855 332.171778 515.438855 299.409873 
" style="fill: none; stroke: #000000; stroke-width: 0.8; stroke-linejoin: miter; stroke-linecap: square"/>
   </g>
   <g id="text_13">
    <!-- Posting by Day of Week -->
    <g transform="translate(187.371982 16.318125) scale(0.12 -0.12)">
     <defs>
      <path id="DejaVuSerif-Bold-50" d="M 300 0 
L 300 378 
L 897 378 
L 897 4288 
L 300 4288 
L 300 4666 
L 2956 4666 
Q 3734 4666 4193 4295 
Q 4653 3925 4653 3303 
Q 4653 2678 4192 2304 
Q 3731 1931 2956 1931 
L 2100 1931 
L 2100 378 
L 2853 378 
L 2853 0 
L 300 0 
z
M 2100 2309 
L 2450 2309 
Q 2856 2309 3098 2579 
Q 3341 2850 3341 3303 
Q 3341 3753 3100 4020 
Q 2859 4288 2450 4288 
L 2100 4288 
L 2100 2309 
z
" transform="scale(0.015625)"/>
      <path id="DejaVuSerif-Bold-6f" d="M 2138 263 
Q 2488 263 2630 563 
Q 2772 863 2772 1663 
Q 2772 2463 2631 2761 
Q 2491 3059 2138 3059 
Q 1784 3059 1640 2757 
Q 1497 2456 1497 1663 
Q 1497 869 1640 566 
Q 1784 263 2138 263 
z
M 2138 -91 
Q 1259 -91 761 376 
Q 263 844 263 1663 
Q 263 2484 761 2948 
Q 1259 3413 2138 3413 
Q 3019 3413 3516 2948 
Q 4013 2484 4013 1663 
Q 4013 844 3514 376 
Q 3016 -91 2138 -91 
z
" transform="scale(0.015625)"/>
      <path id="DejaVuSerif-Bold-73" d="M 300 97 
L 300 1025 
L 653 1025 
Q 697 653 931 458 
Q 1166 263 1569 263 
Q 1906 263 2086 380 
Q 2266 497 2266 716 
Q 2266 916 2152 1025 
Q 2038 1134 1709 1216 
L 1253 1331 
Q 738 1459 506 1698 
Q 275 1938 275 2344 
Q 275 2884 650 3148 
Q 1025 3413 1806 3413 
Q 2100 3413 2433 3364 
Q 2766 3316 3169 3213 
L 3169 2375 
L 2816 2375 
Q 2788 2716 2573 2887 
Q 2359 3059 1959 3059 
Q 1622 3059 1448 2951 
Q 1275 2844 1275 2638 
Q 1275 2469 1375 2372 
Q 1475 2275 1734 2209 
L 2188 2094 
Q 2841 1928 3091 1684 
Q 3341 1441 3341 1006 
Q 3341 444 2939 176 
Q 2538 -91 1691 -91 
Q 1381 -91 1034 -44 
Q 688 3 300 97 
z
" transform="scale(0.015625)"/>
      <path id="DejaVuSerif-Bold-74" d="M 634 2944 
L 153 2944 
L 153 3322 
L 634 3322 
L 634 4353 
L 1741 4353 
L 1741 3322 
L 2663 3322 
L 2663 2944 
L 1741 2944 
L 1741 909 
Q 1741 475 1809 369 
Q 1878 263 2059 263 
Q 2259 263 2356 397 
Q 2453 531 2459 813 
L 2925 813 
Q 2897 313 2651 111 
Q 2406 -91 1806 -91 
Q 1122 -91 878 123 
Q 634 338 634 909 
L 634 2944 
z
" transform="scale(0.015625)"/>
      <path id="DejaVuSerif-Bold-69" d="M 588 4263 
Q 588 4516 763 4689 
Q 938 4863 1191 4863 
Q 1438 4863 1611 4689 
Q 1784 4516 1784 4263 
Q 1784 4016 1611 3842 
Q 1438 3669 1191 3669 
Q 938 3669 763 3841 
Q 588 4013 588 4263 
z
M 1797 378 
L 2272 378 
L 2272 0 
L 219 0 
L 219 378 
L 691 378 
L 691 2944 
L 219 2944 
L 219 3322 
L 1797 3322 
L 1797 378 
z
" transform="scale(0.015625)"/>
      <path id="DejaVuSerif-Bold-6e" d="M 219 0 
L 219 378 
L 691 378 
L 691 2944 
L 219 2944 
L 219 3322 
L 1797 3322 
L 1797 2853 
Q 1997 3150 2253 3281 
Q 2509 3413 2900 3413 
Q 3459 3413 3745 3083 
Q 4031 2753 4031 2113 
L 4031 378 
L 4506 378 
L 4506 0 
L 2522 0 
L 2522 378 
L 2925 378 
L 2925 2144 
Q 2925 2566 2817 2730 
Q 2709 2894 2444 2894 
Q 2109 2894 1953 2648 
Q 1797 2403 1797 1869 
L 1797 378 
L 2203 378 
L 2203 0 
L 219 0 
z
" transform="scale(0.015625)"/>
      <path id="DejaVuSerif-Bold-67" d="M 3853 2944 
L 3853 44 
Q 3853 -656 3354 -1039 
Q 2856 -1422 1947 -1422 
Q 1616 -1422 1275 -1370 
Q 934 -1319 575 -1216 
L 575 -422 
L 928 -422 
Q 975 -750 1192 -909 
Q 1409 -1069 1813 -1069 
Q 2325 -1069 2536 -823 
Q 2747 -578 2747 44 
L 2747 422 
Q 2606 163 2367 36 
Q 2128 -91 1778 -91 
Q 1072 -91 667 378 
Q 263 847 263 1663 
Q 263 2481 667 2947 
Q 1072 3413 1778 3413 
Q 2128 3413 2367 3286 
Q 2606 3159 2747 2900 
L 2747 3322 
L 4325 3322 
L 4325 2944 
L 3853 2944 
z
M 2747 1825 
Q 2747 2406 2597 2665 
Q 2447 2925 2119 2925 
Q 1775 2925 1636 2651 
Q 1497 2378 1497 1663 
Q 1497 947 1637 672 
Q 1778 397 2119 397 
Q 2447 397 2597 656 
Q 2747 916 2747 1497 
L 2747 1825 
z
" transform="scale(0.015625)"/>
      <path id="DejaVuSerif-Bold-20" transform="scale(0.015625)"/>
      <path id="DejaVuSerif-Bold-62" d="M 622 378 
L 622 4488 
L 147 4488 
L 147 4863 
L 1728 4863 
L 1728 2900 
Q 1869 3159 2106 3286 
Q 2344 3413 2694 3413 
Q 3403 3413 3811 2945 
Q 4219 2478 4219 1663 
Q 4219 847 3811 378 
Q 3403 -91 2694 -91 
Q 2344 -91 2106 36 
Q 1869 163 1728 422 
L 1728 0 
L 147 0 
L 147 378 
L 622 378 
z
M 1728 1497 
Q 1728 916 1876 656 
Q 2025 397 2356 397 
Q 2697 397 2836 672 
Q 2975 947 2975 1663 
Q 2975 2378 2836 2651 
Q 2697 2925 2356 2925 
Q 2025 2925 1876 2665 
Q 1728 2406 1728 1825 
L 1728 1497 
z
" transform="scale(0.015625)"/>
      <path id="DejaVuSerif-Bold-79" d="M 1997 -750 
Q 1847 -1116 1634 -1269 
Q 1422 -1422 1063 -1422 
Q 909 -1422 721 -1387 
Q 534 -1353 313 -1288 
L 313 -594 
L 666 -597 
Q 675 -838 779 -953 
Q 884 -1069 1094 -1069 
Q 1297 -1069 1422 -958 
Q 1547 -847 1672 -538 
L 1722 -422 
L 275 2944 
L -84 2944 
L -84 3322 
L 1831 3322 
L 1831 2944 
L 1434 2944 
L 2278 978 
L 3066 2944 
L 2625 2944 
L 2625 3322 
L 3872 3322 
L 3872 2944 
L 3469 2944 
L 1997 -750 
z
" transform="scale(0.015625)"/>
      <path id="DejaVuSerif-Bold-44" d="M 2100 378 
L 2534 378 
Q 3266 378 3605 847 
Q 3944 1316 3944 2338 
Q 3944 3353 3606 3820 
Q 3269 4288 2534 4288 
L 2100 4288 
L 2100 378 
z
M 300 0 
L 300 378 
L 897 378 
L 897 4288 
L 300 4288 
L 300 4666 
L 2694 4666 
Q 3950 4666 4615 4066 
Q 5281 3466 5281 2338 
Q 5281 1203 4614 601 
Q 3947 0 2694 0 
L 300 0 
z
" transform="scale(0.015625)"/>
      <path id="DejaVuSerif-Bold-61" d="M 3525 2041 
L 3525 378 
L 4000 378 
L 4000 0 
L 2419 0 
L 2419 422 
Q 2200 159 1931 34 
Q 1663 -91 1319 -91 
Q 809 -91 536 182 
Q 263 456 263 966 
Q 263 1525 655 1803 
Q 1047 2081 1838 2081 
L 2419 2081 
L 2419 2278 
Q 2419 2681 2228 2873 
Q 2038 3066 1638 3066 
Q 1306 3066 1126 2930 
Q 947 2794 872 2484 
L 519 2484 
L 519 3200 
Q 816 3306 1134 3359 
Q 1453 3413 1806 3413 
Q 2697 3413 3111 3081 
Q 3525 2750 3525 2041 
z
M 2419 1044 
L 2419 1709 
L 2003 1709 
Q 1694 1709 1528 1540 
Q 1363 1372 1363 1056 
Q 1363 741 1483 584 
Q 1603 428 1850 428 
Q 2106 428 2262 597 
Q 2419 766 2419 1044 
z
" transform="scale(0.015625)"/>
      <path id="DejaVuSerif-Bold-66" d="M 3097 4031 
L 2747 4031 
Q 2722 4275 2605 4394 
Q 2488 4513 2272 4513 
Q 2022 4513 1909 4333 
Q 1797 4153 1797 3750 
L 1797 3322 
L 2631 3322 
L 2631 2944 
L 1797 2944 
L 1797 378 
L 2438 378 
L 2438 0 
L 219 0 
L 219 378 
L 691 378 
L 691 2944 
L 197 2944 
L 197 3322 
L 691 3322 
L 691 3738 
Q 691 4291 1044 4577 
Q 1397 4863 2081 4863 
Q 2347 4863 2600 4833 
Q 2853 4803 3097 4744 
L 3097 4031 
z
" transform="scale(0.015625)"/>
      <path id="DejaVuSerif-Bold-57" d="M 5453 0 
L 4647 0 
L 3591 3397 
L 2534 0 
L 1728 0 
L 397 4288 
L -56 4288 
L -56 4666 
L 2156 4666 
L 2156 4288 
L 1656 4288 
L 2547 1422 
L 3553 4666 
L 4441 4666 
L 5466 1369 
L 6375 4288 
L 5819 4288 
L 5819 4666 
L 7263 4666 
L 7263 4288 
L 6784 4288 
L 5453 0 
z
" transform="scale(0.015625)"/>
      <path id="DejaVuSerif-Bold-65" d="M 2566 1875 
Q 2566 2531 2444 2795 
Q 2322 3059 2028 3059 
Q 1744 3059 1620 2800 
Q 1497 2541 1497 1931 
L 1497 1875 
L 2566 1875 
z
M 3781 1503 
L 1497 1503 
L 1497 1478 
Q 1497 834 1690 548 
Q 1884 263 2316 263 
Q 2675 263 2897 453 
Q 3119 644 3181 1006 
L 3700 1006 
Q 3566 441 3166 175 
Q 2766 -91 2047 -91 
Q 1184 -91 723 364 
Q 263 819 263 1663 
Q 263 2488 734 2950 
Q 1206 3413 2047 3413 
Q 2872 3413 3312 2927 
Q 3753 2441 3781 1503 
z
" transform="scale(0.015625)"/>
      <path id="DejaVuSerif-Bold-6b" d="M 2216 0 
L 219 0 
L 219 378 
L 691 378 
L 691 4488 
L 219 4488 
L 219 4863 
L 1797 4863 
L 1797 1741 
L 3138 2944 
L 2741 2944 
L 2741 3322 
L 4256 3322 
L 4256 2944 
L 3641 2944 
L 2784 2175 
L 4184 378 
L 4544 378 
L 4544 0 
L 2638 0 
L 2638 378 
L 3028 378 
L 2106 1563 
L 1797 1288 
L 1797 378 
L 2216 378 
L 2216 0 
z
" transform="scale(0.015625)"/>
     </defs>
     <use xlink:href="#DejaVuSerif-Bold-50"/>
     <use xlink:href="#DejaVuSerif-Bold-6f" x="72.570312"/>
     <use xlink:href="#DejaVuSerif-Bold-73" x="139.269531"/>
     <use xlink:href="#DejaVuSerif-Bold-74" x="195.568359"/>
     <use xlink:href="#DejaVuSerif-Bold-69" x="241.759766"/>
     <use xlink:href="#DejaVuSerif-Bold-6e" x="279.748047"/>
     <use xlink:href="#DejaVuSerif-Bold-67" x="352.453125"/>
     <use xlink:href="#DejaVuSerif-Bold-20" x="422.375"/>
     <use xlink:href="#DejaVuSerif-Bold-62" x="457.189453"/>
     <use xlink:href="#DejaVuSerif-Bold-79" x="527.111328"/>
     <use xlink:href="#DejaVuSerif-Bold-20" x="585.216797"/>
     <use xlink:href="#DejaVuSerif-Bold-44" x="620.03125"/>
     <use xlink:href="#DejaVuSerif-Bold-61" x="706.75"/>
     <use xlink:href="#DejaVuSerif-Bold-79" x="771.544922"/>
     <use xlink:href="#DejaVuSerif-Bold-20" x="829.650391"/>
     <use xlink:href="#DejaVuSerif-Bold-6f" x="864.464844"/>
     <use xlink:href="#DejaVuSerif-Bold-66" x="931.164062"/>
     <use xlink:href="#DejaVuSerif-Bold-20" x="974.181641"/>
     <use xlink:href="#DejaVuSerif-Bold-57" x="1008.996094"/>
     <use xlink:href="#DejaVuSerif-Bold-65" x="1113.175781"/>
     <use xlink:href="#DejaVuSerif-Bold-65" x="1176.798828"/>
     <use xlink:href="#DejaVuSerif-Bold-6b" x="1240.421875"/>
    </g>
    <!-- (Tuesday Peaks) -->
    <g transform="translate(211.54917 29.926125) scale(0.12 -0.12)">
     <defs>
      <path id="DejaVuSerif-Bold-28" d="M 2694 -997 
Q 1641 -606 1122 122 
Q 603 850 603 1931 
Q 603 3013 1115 3731 
Q 1628 4450 2694 4863 
L 2694 4488 
Q 2200 4188 1983 3598 
Q 1766 3009 1766 1931 
Q 1766 856 1983 267 
Q 2200 -322 2694 -622 
L 2694 -997 
z
" transform="scale(0.015625)"/>
      <path id="DejaVuSerif-Bold-54" d="M 1159 0 
L 1159 378 
L 1778 378 
L 1778 4238 
L 500 4238 
L 500 3500 
L 72 3500 
L 72 4666 
L 4697 4666 
L 4697 3500 
L 4275 3500 
L 4275 4238 
L 2988 4238 
L 2988 378 
L 3609 378 
L 3609 0 
L 1159 0 
z
" transform="scale(0.015625)"/>
      <path id="DejaVuSerif-Bold-75" d="M 3963 3322 
L 3963 378 
L 4434 378 
L 4434 0 
L 2853 0 
L 2853 469 
Q 2656 172 2400 40 
Q 2144 -91 1753 -91 
Q 1194 -91 908 239 
Q 622 569 622 1209 
L 622 2944 
L 147 2944 
L 147 3322 
L 1728 3322 
L 1728 1381 
Q 1728 763 1831 595 
Q 1934 428 2209 428 
Q 2544 428 2698 675 
Q 2853 922 2853 1459 
L 2853 2944 
L 2450 2944 
L 2450 3322 
L 3963 3322 
z
" transform="scale(0.015625)"/>
      <path id="DejaVuSerif-Bold-64" d="M 2747 1497 
L 2747 1825 
Q 2747 2406 2597 2665 
Q 2447 2925 2119 2925 
Q 1775 2925 1636 2651 
Q 1497 2378 1497 1663 
Q 1497 947 1637 672 
Q 1778 397 2119 397 
Q 2447 397 2597 656 
Q 2747 916 2747 1497 
z
M 3853 378 
L 4325 378 
L 4325 0 
L 2747 0 
L 2747 422 
Q 2606 163 2367 36 
Q 2128 -91 1778 -91 
Q 1072 -91 667 378 
Q 263 847 263 1663 
Q 263 2481 667 2947 
Q 1072 3413 1778 3413 
Q 2128 3413 2367 3286 
Q 2606 3159 2747 2900 
L 2747 4488 
L 2272 4488 
L 2272 4863 
L 3853 4863 
L 3853 378 
z
" transform="scale(0.015625)"/>
      <path id="DejaVuSerif-Bold-29" d="M 325 -997 
L 325 -622 
Q 819 -322 1036 267 
Q 1253 856 1253 1931 
Q 1253 3009 1036 3598 
Q 819 4188 325 4488 
L 325 4863 
Q 1391 4450 1905 3731 
Q 2419 3013 2419 1931 
Q 2419 850 1898 122 
Q 1378 -606 325 -997 
z
" transform="scale(0.015625)"/>
     </defs>
     <use xlink:href="#DejaVuSerif-Bold-28"/>
     <use xlink:href="#DejaVuSerif-Bold-54" x="47.314453"/>
     <use xlink:href="#DejaVuSerif-Bold-75" x="112.603516"/>
     <use xlink:href="#DejaVuSerif-Bold-65" x="185.308594"/>
     <use xlink:href="#DejaVuSerif-Bold-73" x="248.931641"/>
     <use xlink:href="#DejaVuSerif-Bold-64" x="305.230469"/>
     <use xlink:href="#DejaVuSerif-Bold-61" x="375.152344"/>
     <use xlink:href="#DejaVuSerif-Bold-79" x="439.947266"/>
     <use xlink:href="#DejaVuSerif-Bold-20" x="498.052734"/>
     <use xlink:href="#DejaVuSerif-Bold-50" x="532.867188"/>
     <use xlink:href="#DejaVuSerif-Bold-65" x="605.4375"/>
     <use xlink:href="#DejaVuSerif-Bold-61" x="669.060547"/>
     <use xlink:href="#DejaVuSerif-Bold-6b" x="733.855469"/>
     <use xlink:href="#DejaVuSerif-Bold-73" x="803.142578"/>
     <use xlink:href="#DejaVuSerif-Bold-29" x="859.441406"/>
    </g>
   </g>
   <g id="line2d_14">
    <defs>
     <path id="m521aeeb837" d="M 0 7.5 
C 1.989023 7.5 3.896849 6.709753 5.303301 5.303301 
C 6.709753 3.896849 7.5 1.989023 7.5 0 
C 7.5 -1.989023 6.709753 -3.896849 5.303301 -5.303301 
C 3.896849 -6.709753 1.989023 -7.5 0 -7.5 
C -1.989023 -7.5 -3.896849 -6.709753 -5.303301 -5.303301 
C -6.709753 -3.896849 -7.5 -1.989023 -7.5 0 
C -7.5 1.989023 -6.709753 3.896849 -5.303301 5.303301 
C -3.896849 6.709753 -1.989023 7.5 0 7.5 
z
" style="stroke: #e74c3c"/>
    </defs>
    <g clip-path="url(#pd54fb1a0d1)">
     <use xlink:href="#m521aeeb837" x="407.364718" y="122.087829" style="fill: #e74c3c; stroke: #e74c3c"/>
    </g>
   </g>
  </g>
 </g>
 <defs>
  <clipPath id="pd54fb1a0d1">
   <path d="M 515.438855 299.409873 
C 515.438855 266.647967 508.985474 234.20463 496.448035 203.936576 
C 483.910597 173.668522 465.532922 146.164389 442.366757 122.998223 
C 419.200591 99.832057 391.696458 81.454383 361.428404 68.916945 
C 331.16035 56.379506 298.717013 49.926125 265.955107 49.926125 
C 233.193201 49.926125 200.749864 56.379506 170.48181 68.916945 
C 140.213756 81.454383 112.709623 99.832057 89.543457 122.998223 
C 66.377292 146.164389 47.999617 173.668522 35.462179 203.936576 
C 22.92474 234.20463 16.471359 266.647967 16.471359 299.409873 
C 16.471359 332.171778 22.92474 364.615116 35.462179 394.88317 
C 47.999617 425.151224 66.377292 452.655357 89.543457 475.821523 
C 112.709623 498.987688 140.213756 517.365362 170.48181 529.902801 
C 200.749864 542.440239 233.193201 548.89362 265.955107 548.89362 
C 298.717013 548.89362 331.16035 542.440239 361.428404 529.902801 
C 391.696458 517.365362 419.200591 498.987688 442.366757 475.821523 
C 465.532922 452.655357 483.910597 425.151224 496.448035 394.88317 
C 508.985474 364.615116 515.438855 332.171778 515.438855 299.409873 
M 265.955107 299.409873 
C 265.955107 299.409873 265.955107 299.409873 265.955107 299.409873 
C 265.955107 299.409873 265.955107 299.409873 265.955107 299.409873 
C 265.955107 299.409873 265.955107 299.409873 265.955107 299.409873 
C 265.955107 299.409873 265.955107 299.409873 265.955107 299.409873 
C 265.955107 299.409873 265.955107 299.409873 265.955107 299.409873 
C 265.955107 299.409873 265.955107 299.409873 265.955107 299.409873 
C 265.955107 299.409873 265.955107 299.409873 265.955107 299.409873 
C 265.955107 299.409873 265.955107 299.409873 265.955107 299.409873 
C 265.955107 299.409873 265.955107 299.409873 265.955107 299.409873 
C 265.955107 299.409873 265.955107 299.409873 265.955107 299.409873 
C 265.955107 299.409873 265.955107 299.409873 265.955107 299.409873 
C 265.955107 299.409873 265.955107 299.409873 265.955107 299.409873 
C 265.955107 299.409873 265.955107 299.409873 265.955107 299.409873 
C 265.955107 299.409873 265.955107 299.409873 265.955107 299.409873 
C 265.955107 299.409873 265.955107 299.409873 265.955107 299.409873 
C 265.955107 299.409873 265.955107 299.409873 265.955107 299.409873 
z
"/>
  </clipPath>
 </defs>
</svg>
