<?xml version="1.0" encoding="utf-8" standalone="no"?>
<!DOCTYPE svg PUBLIC "-//W3C//DTD SVG 1.1//EN"
  "http://www.w3.org/Graphics/SVG/1.1/DTD/svg11.dtd">
<svg xmlns:xlink="http://www.w3.org/1999/xlink" width="856.8pt" height="280.466562pt" viewBox="0 0 856.8 280.466562" xmlns="http://www.w3.org/2000/svg" version="1.1">
 <metadata>
  <rdf:RDF xmlns:dc="http://purl.org/dc/elements/1.1/" xmlns:cc="http://creativecommons.org/ns#" xmlns:rdf="http://www.w3.org/1999/02/22-rdf-syntax-ns#">
   <cc:Work>
    <dc:type rdf:resource="http://purl.org/dc/dcmitype/StillImage"/>
    <dc:date>2025-11-29T12:02:23.952953</dc:date>
    <dc:format>image/svg+xml</dc:format>
    <dc:creator>
     <cc:Agent>
      <dc:title>Matplotlib v3.8.2, https://matplotlib.org/</dc:title>
     </cc:Agent>
    </dc:creator>
   </cc:Work>
  </rdf:RDF>
 </metadata>
 <defs>
  <style type="text/css">*{stroke-linejoin: round; stroke-linecap: butt}</style>
 </defs>
 <g id="figure_1">
  <g id="patch_1">
   <path d="M 0 280.466562 
L 856.8 280.466562 
L 856.8 0 
L 0 0 
z
" style="fill: #ffffff"/>
  </g>
  <g id="axes_1">
   <g id="patch_2">
    <path d="M 7.2 243.878125 
L 849.6 243.878125 
L 849.6 22.318125 
L 7.2 22.318125 
z
" style="fill: #ffffff"/>
   </g>
   <g id="PathCollection_1">
    <defs>
     <path id="C0_0_e3fd88f855" d="M 0 3.535534 
C 0.937635 3.535534 1.836992 3.163008 2.5 2.5 
C 3.163008 1.836992 3.535534 0.937635 3.535534 -0 
C 3.535534 -0.937635 3.163008 -1.836992 2.5 -2.5 
C 1.836992 -3.163008 0.937635 -3.535534 0 -3.535534 
C -0.937635 -3.535534 -1.836992 -3.163008 -2.5 -2.5 
C -3.163008 -1.836992 -3.535534 -0.937635 -3.535534 0 
C -3.535534 0.937635 -3.163008 1.836992 -2.5 2.5 
C -1.836992 3.163008 -0.937635 3.535534 0 3.535534 
z
"/>
    </defs>
    <g clip-path="url(#pa50c8260b0)">
     <use xlink:href="#C0_0_e3fd88f855" x="45.490909" y="133.098125" style="fill: #440154; fill-opacity: 0.7; stroke: #440154; stroke-opacity: 0.7"/>
    </g>
    <g clip-path="url(#pa50c8260b0)">
     <use xlink:href="#C0_0_e3fd88f855" x="66.840159" y="133.098125" style="fill: #481a6c; fill-opacity: 0.7; stroke: #481a6c; stroke-opacity: 0.7"/>
    </g>
    <g clip-path="url(#pa50c8260b0)">
     <use xlink:href="#C0_0_e3fd88f855" x="66.856391" y="133.098125" style="fill: #481a6c; fill-opacity: 0.7; stroke: #481a6c; stroke-opacity: 0.7"/>
    </g>
    <g clip-path="url(#pa50c8260b0)">
     <use xlink:href="#C0_0_e3fd88f855" x="97.817949" y="133.098125" style="fill: #481a6c; fill-opacity: 0.7; stroke: #481a6c; stroke-opacity: 0.7"/>
    </g>
    <g clip-path="url(#pa50c8260b0)">
     <use xlink:href="#C0_0_e3fd88f855" x="130.084943" y="133.098125" style="fill: #472f7d; fill-opacity: 0.7; stroke: #472f7d; stroke-opacity: 0.7"/>
    </g>
    <g clip-path="url(#pa50c8260b0)">
     <use xlink:href="#C0_0_e3fd88f855" x="136.696078" y="133.098125" style="fill: #472f7d; fill-opacity: 0.7; stroke: #472f7d; stroke-opacity: 0.7"/>
    </g>
    <g clip-path="url(#pa50c8260b0)">
     <use xlink:href="#C0_0_e3fd88f855" x="148.001185" y="133.098125" style="fill: #472f7d; fill-opacity: 0.7; stroke: #472f7d; stroke-opacity: 0.7"/>
    </g>
    <g clip-path="url(#pa50c8260b0)">
     <use xlink:href="#C0_0_e3fd88f855" x="160.052897" y="133.098125" style="fill: #414487; fill-opacity: 0.7; stroke: #414487; stroke-opacity: 0.7"/>
    </g>
    <g clip-path="url(#pa50c8260b0)">
     <use xlink:href="#C0_0_e3fd88f855" x="170.20033" y="133.098125" style="fill: #414487; fill-opacity: 0.7; stroke: #414487; stroke-opacity: 0.7"/>
    </g>
    <g clip-path="url(#pa50c8260b0)">
     <use xlink:href="#C0_0_e3fd88f855" x="177.590241" y="133.098125" style="fill: #414487; fill-opacity: 0.7; stroke: #414487; stroke-opacity: 0.7"/>
    </g>
    <g clip-path="url(#pa50c8260b0)">
     <use xlink:href="#C0_0_e3fd88f855" x="237.596775" y="133.098125" style="fill: #39568c; fill-opacity: 0.7; stroke: #39568c; stroke-opacity: 0.7"/>
    </g>
    <g clip-path="url(#pa50c8260b0)">
     <use xlink:href="#C0_0_e3fd88f855" x="273.402768" y="133.098125" style="fill: #31688e; fill-opacity: 0.7; stroke: #31688e; stroke-opacity: 0.7"/>
    </g>
    <g clip-path="url(#pa50c8260b0)">
     <use xlink:href="#C0_0_e3fd88f855" x="289.271296" y="133.098125" style="fill: #31688e; fill-opacity: 0.7; stroke: #31688e; stroke-opacity: 0.7"/>
    </g>
    <g clip-path="url(#pa50c8260b0)">
     <use xlink:href="#C0_0_e3fd88f855" x="293.648183" y="133.098125" style="fill: #31688e; fill-opacity: 0.7; stroke: #31688e; stroke-opacity: 0.7"/>
    </g>
    <g clip-path="url(#pa50c8260b0)">
     <use xlink:href="#C0_0_e3fd88f855" x="303.542204" y="133.098125" style="fill: #31688e; fill-opacity: 0.7; stroke: #31688e; stroke-opacity: 0.7"/>
    </g>
    <g clip-path="url(#pa50c8260b0)">
     <use xlink:href="#C0_0_e3fd88f855" x="303.839071" y="133.098125" style="fill: #31688e; fill-opacity: 0.7; stroke: #31688e; stroke-opacity: 0.7"/>
    </g>
    <g clip-path="url(#pa50c8260b0)">
     <use xlink:href="#C0_0_e3fd88f855" x="314.778798" y="133.098125" style="fill: #31688e; fill-opacity: 0.7; stroke: #31688e; stroke-opacity: 0.7"/>
    </g>
    <g clip-path="url(#pa50c8260b0)">
     <use xlink:href="#C0_0_e3fd88f855" x="390.64177" y="133.098125" style="fill: #23888e; fill-opacity: 0.7; stroke: #23888e; stroke-opacity: 0.7"/>
    </g>
    <g clip-path="url(#pa50c8260b0)">
     <use xlink:href="#C0_0_e3fd88f855" x="408.341459" y="133.098125" style="fill: #23888e; fill-opacity: 0.7; stroke: #23888e; stroke-opacity: 0.7"/>
    </g>
    <g clip-path="url(#pa50c8260b0)">
     <use xlink:href="#C0_0_e3fd88f855" x="438.181179" y="133.098125" style="fill: #1f988b; fill-opacity: 0.7; stroke: #1f988b; stroke-opacity: 0.7"/>
    </g>
    <g clip-path="url(#pa50c8260b0)">
     <use xlink:href="#C0_0_e3fd88f855" x="452.995539" y="133.098125" style="fill: #1f988b; fill-opacity: 0.7; stroke: #1f988b; stroke-opacity: 0.7"/>
    </g>
    <g clip-path="url(#pa50c8260b0)">
     <use xlink:href="#C0_0_e3fd88f855" x="467.015741" y="133.098125" style="fill: #1f988b; fill-opacity: 0.7; stroke: #1f988b; stroke-opacity: 0.7"/>
    </g>
    <g clip-path="url(#pa50c8260b0)">
     <use xlink:href="#C0_0_e3fd88f855" x="504.608597" y="133.098125" style="fill: #22a884; fill-opacity: 0.7; stroke: #22a884; stroke-opacity: 0.7"/>
    </g>
    <g clip-path="url(#pa50c8260b0)">
     <use xlink:href="#C0_0_e3fd88f855" x="512.393483" y="133.098125" style="fill: #22a884; fill-opacity: 0.7; stroke: #22a884; stroke-opacity: 0.7"/>
    </g>
    <g clip-path="url(#pa50c8260b0)">
     <use xlink:href="#C0_0_e3fd88f855" x="531.719649" y="133.098125" style="fill: #35b779; fill-opacity: 0.7; stroke: #35b779; stroke-opacity: 0.7"/>
    </g>
    <g clip-path="url(#pa50c8260b0)">
     <use xlink:href="#C0_0_e3fd88f855" x="579.143363" y="133.098125" style="fill: #54c568; fill-opacity: 0.7; stroke: #54c568; stroke-opacity: 0.7"/>
    </g>
    <g clip-path="url(#pa50c8260b0)">
     <use xlink:href="#C0_0_e3fd88f855" x="583.368467" y="133.098125" style="fill: #54c568; fill-opacity: 0.7; stroke: #54c568; stroke-opacity: 0.7"/>
    </g>
    <g clip-path="url(#pa50c8260b0)">
     <use xlink:href="#C0_0_e3fd88f855" x="597.549726" y="133.098125" style="fill: #54c568; fill-opacity: 0.7; stroke: #54c568; stroke-opacity: 0.7"/>
    </g>
    <g clip-path="url(#pa50c8260b0)">
     <use xlink:href="#C0_0_e3fd88f855" x="612.6609" y="133.098125" style="fill: #54c568; fill-opacity: 0.7; stroke: #54c568; stroke-opacity: 0.7"/>
    </g>
    <g clip-path="url(#pa50c8260b0)">
     <use xlink:href="#C0_0_e3fd88f855" x="636.334177" y="133.098125" style="fill: #7ad151; fill-opacity: 0.7; stroke: #7ad151; stroke-opacity: 0.7"/>
    </g>
    <g clip-path="url(#pa50c8260b0)">
     <use xlink:href="#C0_0_e3fd88f855" x="658.628474" y="133.098125" style="fill: #7ad151; fill-opacity: 0.7; stroke: #7ad151; stroke-opacity: 0.7"/>
    </g>
    <g clip-path="url(#pa50c8260b0)">
     <use xlink:href="#C0_0_e3fd88f855" x="678.539895" y="133.098125" style="fill: #a5db36; fill-opacity: 0.7; stroke: #a5db36; stroke-opacity: 0.7"/>
    </g>
    <g clip-path="url(#pa50c8260b0)">
     <use xlink:href="#C0_0_e3fd88f855" x="686.359262" y="133.098125" style="fill: #a5db36; fill-opacity: 0.7; stroke: #a5db36; stroke-opacity: 0.7"/>
    </g>
    <g clip-path="url(#pa50c8260b0)">
     <use xlink:href="#C0_0_e3fd88f855" x="692.5454" y="133.098125" style="fill: #a5db36; fill-opacity: 0.7; stroke: #a5db36; stroke-opacity: 0.7"/>
    </g>
    <g clip-path="url(#pa50c8260b0)">
     <use xlink:href="#C0_0_e3fd88f855" x="700.730312" y="133.098125" style="fill: #a5db36; fill-opacity: 0.7; stroke: #a5db36; stroke-opacity: 0.7"/>
    </g>
    <g clip-path="url(#pa50c8260b0)">
     <use xlink:href="#C0_0_e3fd88f855" x="706.1677" y="133.098125" style="fill: #a5db36; fill-opacity: 0.7; stroke: #a5db36; stroke-opacity: 0.7"/>
    </g>
    <g clip-path="url(#pa50c8260b0)">
     <use xlink:href="#C0_0_e3fd88f855" x="762.372183" y="133.098125" style="fill: #d2e21b; fill-opacity: 0.7; stroke: #d2e21b; stroke-opacity: 0.7"/>
    </g>
    <g clip-path="url(#pa50c8260b0)">
     <use xlink:href="#C0_0_e3fd88f855" x="763.401626" y="133.098125" style="fill: #d2e21b; fill-opacity: 0.7; stroke: #d2e21b; stroke-opacity: 0.7"/>
    </g>
    <g clip-path="url(#pa50c8260b0)">
     <use xlink:href="#C0_0_e3fd88f855" x="789.971857" y="133.098125" style="fill: #fde725; fill-opacity: 0.7; stroke: #fde725; stroke-opacity: 0.7"/>
    </g>
    <g clip-path="url(#pa50c8260b0)">
     <use xlink:href="#C0_0_e3fd88f855" x="791.20161" y="133.098125" style="fill: #fde725; fill-opacity: 0.7; stroke: #fde725; stroke-opacity: 0.7"/>
    </g>
    <g clip-path="url(#pa50c8260b0)">
     <use xlink:href="#C0_0_e3fd88f855" x="811.309091" y="133.098125" style="fill: #fde725; fill-opacity: 0.7; stroke: #fde725; stroke-opacity: 0.7"/>
    </g>
   </g>
   <g id="matplotlib.axis_1">
    <g id="xtick_1">
     <g id="line2d_1">
      <defs>
       <path id="m9ce78b7d3b" d="M 0 0 
L 0 3.5 
" style="stroke: #000000; stroke-width: 0.8"/>
      </defs>
      <g>
       <use xlink:href="#m9ce78b7d3b" x="108.233654" y="243.878125" style="stroke: #000000; stroke-width: 0.8"/>
      </g>
     </g>
     <g id="text_1">
      <!-- 2012 -->
      <g transform="translate(96.781154 257.716719) scale(0.09 -0.09)">
       <defs>
        <path id="DejaVuSerif-32" d="M 819 3553 
L 469 3553 
L 469 4384 
Q 803 4563 1142 4656 
Q 1481 4750 1806 4750 
Q 2534 4750 2956 4397 
Q 3378 4044 3378 3438 
Q 3378 2753 2422 1800 
Q 2347 1728 2309 1691 
L 1131 513 
L 3078 513 
L 3078 1088 
L 3444 1088 
L 3444 0 
L 434 0 
L 434 341 
L 1850 1753 
Q 2319 2222 2519 2614 
Q 2719 3006 2719 3438 
Q 2719 3909 2473 4175 
Q 2228 4441 1797 4441 
Q 1350 4441 1106 4219 
Q 863 3997 819 3553 
z
" transform="scale(0.015625)"/>
        <path id="DejaVuSerif-30" d="M 2034 219 
Q 2513 219 2750 744 
Q 2988 1269 2988 2328 
Q 2988 3391 2750 3916 
Q 2513 4441 2034 4441 
Q 1556 4441 1318 3916 
Q 1081 3391 1081 2328 
Q 1081 1269 1318 744 
Q 1556 219 2034 219 
z
M 2034 -91 
Q 1275 -91 848 546 
Q 422 1184 422 2328 
Q 422 3475 848 4112 
Q 1275 4750 2034 4750 
Q 2797 4750 3222 4112 
Q 3647 3475 3647 2328 
Q 3647 1184 3222 546 
Q 2797 -91 2034 -91 
z
" transform="scale(0.015625)"/>
        <path id="DejaVuSerif-31" d="M 909 0 
L 909 331 
L 1722 331 
L 1722 4213 
L 781 3603 
L 781 4013 
L 1919 4750 
L 2350 4750 
L 2350 331 
L 3163 331 
L 3163 0 
L 909 0 
z
" transform="scale(0.015625)"/>
       </defs>
       <use xlink:href="#DejaVuSerif-32"/>
       <use xlink:href="#DejaVuSerif-30" x="63.623047"/>
       <use xlink:href="#DejaVuSerif-31" x="127.246094"/>
       <use xlink:href="#DejaVuSerif-32" x="190.869141"/>
      </g>
     </g>
    </g>
    <g id="xtick_2">
     <g id="line2d_2">
      <g>
       <use xlink:href="#m9ce78b7d3b" x="211.593783" y="243.878125" style="stroke: #000000; stroke-width: 0.8"/>
      </g>
     </g>
     <g id="text_2">
      <!-- 2014 -->
      <g transform="translate(200.141283 257.716719) scale(0.09 -0.09)">
       <defs>
        <path id="DejaVuSerif-34" d="M 2234 1581 
L 2234 4063 
L 641 1581 
L 2234 1581 
z
M 3609 0 
L 1484 0 
L 1484 331 
L 2234 331 
L 2234 1247 
L 197 1247 
L 197 1588 
L 2241 4750 
L 2859 4750 
L 2859 1581 
L 3750 1581 
L 3750 1247 
L 2859 1247 
L 2859 331 
L 3609 331 
L 3609 0 
z
" transform="scale(0.015625)"/>
       </defs>
       <use xlink:href="#DejaVuSerif-32"/>
       <use xlink:href="#DejaVuSerif-30" x="63.623047"/>
       <use xlink:href="#DejaVuSerif-31" x="127.246094"/>
       <use xlink:href="#DejaVuSerif-34" x="190.869141"/>
      </g>
     </g>
    </g>
    <g id="xtick_3">
     <g id="line2d_3">
      <g>
       <use xlink:href="#m9ce78b7d3b" x="314.812516" y="243.878125" style="stroke: #000000; stroke-width: 0.8"/>
      </g>
     </g>
     <g id="text_3">
      <!-- 2016 -->
      <g transform="translate(303.360016 257.716719) scale(0.09 -0.09)">
       <defs>
        <path id="DejaVuSerif-36" d="M 2094 219 
Q 2534 219 2771 542 
Q 3009 866 3009 1472 
Q 3009 2078 2771 2401 
Q 2534 2725 2094 2725 
Q 1647 2725 1412 2412 
Q 1178 2100 1178 1509 
Q 1178 888 1415 553 
Q 1653 219 2094 219 
z
M 1075 2569 
Q 1288 2803 1556 2918 
Q 1825 3034 2163 3034 
Q 2859 3034 3264 2615 
Q 3669 2197 3669 1472 
Q 3669 763 3233 336 
Q 2797 -91 2069 -91 
Q 1278 -91 853 498 
Q 428 1088 428 2181 
Q 428 3406 931 4078 
Q 1434 4750 2350 4750 
Q 2597 4750 2869 4703 
Q 3141 4656 3425 4563 
L 3425 3794 
L 3072 3794 
Q 3034 4109 2831 4275 
Q 2628 4441 2284 4441 
Q 1678 4441 1381 3981 
Q 1084 3522 1075 2569 
z
" transform="scale(0.015625)"/>
       </defs>
       <use xlink:href="#DejaVuSerif-32"/>
       <use xlink:href="#DejaVuSerif-30" x="63.623047"/>
       <use xlink:href="#DejaVuSerif-31" x="127.246094"/>
       <use xlink:href="#DejaVuSerif-36" x="190.869141"/>
      </g>
     </g>
    </g>
    <g id="xtick_4">
     <g id="line2d_4">
      <g>
       <use xlink:href="#m9ce78b7d3b" x="418.172644" y="243.878125" style="stroke: #000000; stroke-width: 0.8"/>
      </g>
     </g>
     <g id="text_4">
      <!-- 2018 -->
      <g transform="translate(406.720144 257.716719) scale(0.09 -0.09)">
       <defs>
        <path id="DejaVuSerif-38" d="M 2981 1275 
Q 2981 1775 2732 2051 
Q 2484 2328 2034 2328 
Q 1584 2328 1336 2051 
Q 1088 1775 1088 1275 
Q 1088 772 1336 495 
Q 1584 219 2034 219 
Q 2484 219 2732 495 
Q 2981 772 2981 1275 
z
M 2853 3541 
Q 2853 3966 2637 4203 
Q 2422 4441 2034 4441 
Q 1650 4441 1433 4203 
Q 1216 3966 1216 3541 
Q 1216 3113 1433 2875 
Q 1650 2638 2034 2638 
Q 2422 2638 2637 2875 
Q 2853 3113 2853 3541 
z
M 2516 2484 
Q 3047 2413 3344 2092 
Q 3641 1772 3641 1275 
Q 3641 619 3225 264 
Q 2809 -91 2034 -91 
Q 1263 -91 845 264 
Q 428 619 428 1275 
Q 428 1772 725 2092 
Q 1022 2413 1556 2484 
Q 1084 2569 832 2842 
Q 581 3116 581 3541 
Q 581 4103 968 4426 
Q 1356 4750 2034 4750 
Q 2713 4750 3100 4426 
Q 3488 4103 3488 3541 
Q 3488 3116 3236 2842 
Q 2984 2569 2516 2484 
z
" transform="scale(0.015625)"/>
       </defs>
       <use xlink:href="#DejaVuSerif-32"/>
       <use xlink:href="#DejaVuSerif-30" x="63.623047"/>
       <use xlink:href="#DejaVuSerif-31" x="127.246094"/>
       <use xlink:href="#DejaVuSerif-38" x="190.869141"/>
      </g>
     </g>
    </g>
    <g id="xtick_5">
     <g id="line2d_5">
      <g>
       <use xlink:href="#m9ce78b7d3b" x="521.391377" y="243.878125" style="stroke: #000000; stroke-width: 0.8"/>
      </g>
     </g>
     <g id="text_5">
      <!-- 2020 -->
      <g transform="translate(509.938877 257.716719) scale(0.09 -0.09)">
       <use xlink:href="#DejaVuSerif-32"/>
       <use xlink:href="#DejaVuSerif-30" x="63.623047"/>
       <use xlink:href="#DejaVuSerif-32" x="127.246094"/>
       <use xlink:href="#DejaVuSerif-30" x="190.869141"/>
      </g>
     </g>
    </g>
    <g id="xtick_6">
     <g id="line2d_6">
      <g>
       <use xlink:href="#m9ce78b7d3b" x="624.751505" y="243.878125" style="stroke: #000000; stroke-width: 0.8"/>
      </g>
     </g>
     <g id="text_6">
      <!-- 2022 -->
      <g transform="translate(613.299005 257.716719) scale(0.09 -0.09)">
       <use xlink:href="#DejaVuSerif-32"/>
       <use xlink:href="#DejaVuSerif-30" x="63.623047"/>
       <use xlink:href="#DejaVuSerif-32" x="127.246094"/>
       <use xlink:href="#DejaVuSerif-32" x="190.869141"/>
      </g>
     </g>
    </g>
    <g id="xtick_7">
     <g id="line2d_7">
      <g>
       <use xlink:href="#m9ce78b7d3b" x="727.970238" y="243.878125" style="stroke: #000000; stroke-width: 0.8"/>
      </g>
     </g>
     <g id="text_7">
      <!-- 2024 -->
      <g transform="translate(716.517738 257.716719) scale(0.09 -0.09)">
       <use xlink:href="#DejaVuSerif-32"/>
       <use xlink:href="#DejaVuSerif-30" x="63.623047"/>
       <use xlink:href="#DejaVuSerif-32" x="127.246094"/>
       <use xlink:href="#DejaVuSerif-34" x="190.869141"/>
      </g>
     </g>
    </g>
    <g id="xtick_8">
     <g id="line2d_8">
      <g>
       <use xlink:href="#m9ce78b7d3b" x="831.330367" y="243.878125" style="stroke: #000000; stroke-width: 0.8"/>
      </g>
     </g>
     <g id="text_8">
      <!-- 2026 -->
      <g transform="translate(819.877867 257.716719) scale(0.09 -0.09)">
       <use xlink:href="#DejaVuSerif-32"/>
       <use xlink:href="#DejaVuSerif-30" x="63.623047"/>
       <use xlink:href="#DejaVuSerif-32" x="127.246094"/>
       <use xlink:href="#DejaVuSerif-36" x="190.869141"/>
      </g>
     </g>
    </g>
    <g id="text_9">
     <!-- Year -->
     <g transform="translate(417.20625 271.186875) scale(0.1 -0.1)">
      <defs>
       <path id="DejaVuSerif-59" d="M 1209 0 
L 1209 331 
L 1806 331 
L 1806 2009 
L 366 4331 
L -72 4331 
L -72 4666 
L 1663 4666 
L 1663 4331 
L 1119 4331 
L 2284 2444 
L 3450 4331 
L 2925 4331 
L 2925 4666 
L 4281 4666 
L 4281 4331 
L 3841 4331 
L 2438 2069 
L 2438 331 
L 3034 331 
L 3034 0 
L 1209 0 
z
" transform="scale(0.015625)"/>
       <path id="DejaVuSerif-65" d="M 3469 1600 
L 991 1600 
L 991 1575 
Q 991 903 1244 561 
Q 1497 219 1991 219 
Q 2369 219 2611 417 
Q 2853 616 2950 1006 
L 3413 1006 
Q 3275 459 2904 184 
Q 2534 -91 1931 -91 
Q 1203 -91 761 389 
Q 319 869 319 1663 
Q 319 2450 753 2931 
Q 1188 3413 1894 3413 
Q 2647 3413 3050 2948 
Q 3453 2484 3469 1600 
z
M 2791 1931 
Q 2772 2513 2545 2808 
Q 2319 3103 1894 3103 
Q 1497 3103 1269 2806 
Q 1041 2509 991 1931 
L 2791 1931 
z
" transform="scale(0.015625)"/>
       <path id="DejaVuSerif-61" d="M 2547 1044 
L 2547 1747 
L 1806 1747 
Q 1378 1747 1168 1562 
Q 959 1378 959 997 
Q 959 650 1171 447 
Q 1384 244 1747 244 
Q 2106 244 2326 466 
Q 2547 688 2547 1044 
z
M 3122 2075 
L 3122 331 
L 3634 331 
L 3634 0 
L 2547 0 
L 2547 359 
Q 2356 128 2106 18 
Q 1856 -91 1522 -91 
Q 969 -91 644 203 
Q 319 497 319 997 
Q 319 1513 691 1797 
Q 1063 2081 1741 2081 
L 2547 2081 
L 2547 2309 
Q 2547 2688 2317 2895 
Q 2088 3103 1672 3103 
Q 1328 3103 1125 2947 
Q 922 2791 872 2484 
L 575 2484 
L 575 3156 
Q 875 3284 1158 3348 
Q 1441 3413 1709 3413 
Q 2400 3413 2761 3070 
Q 3122 2728 3122 2075 
z
" transform="scale(0.015625)"/>
       <path id="DejaVuSerif-72" d="M 3059 3328 
L 3059 2497 
L 2728 2497 
Q 2713 2744 2591 2866 
Q 2469 2988 2234 2988 
Q 1809 2988 1582 2694 
Q 1356 2400 1356 1850 
L 1356 331 
L 2022 331 
L 2022 0 
L 263 0 
L 263 331 
L 781 331 
L 781 2994 
L 231 2994 
L 231 3322 
L 1356 3322 
L 1356 2731 
Q 1525 3078 1790 3245 
Q 2056 3413 2438 3413 
Q 2578 3413 2733 3391 
Q 2888 3369 3059 3328 
z
" transform="scale(0.015625)"/>
      </defs>
      <use xlink:href="#DejaVuSerif-59"/>
      <use xlink:href="#DejaVuSerif-65" x="57.265625"/>
      <use xlink:href="#DejaVuSerif-61" x="116.445312"/>
      <use xlink:href="#DejaVuSerif-72" x="176.064453"/>
     </g>
    </g>
   </g>
   <g id="matplotlib.axis_2"/>
   <g id="line2d_9">
    <path d="M 7.2 133.098125 
L 849.6 133.098125 
" clip-path="url(#pa50c8260b0)" style="fill: none; stroke: #7f8c8d; stroke-opacity: 0.3; stroke-width: 1.5; stroke-linecap: square"/>
   </g>
   <g id="patch_3">
    <path d="M 7.2 243.878125 
L 7.2 22.318125 
" style="fill: none; stroke: #000000; stroke-width: 0.8; stroke-linejoin: miter; stroke-linecap: square"/>
   </g>
   <g id="patch_4">
    <path d="M 7.2 243.878125 
L 849.6 243.878125 
" style="fill: none; stroke: #000000; stroke-width: 0.8; stroke-linejoin: miter; stroke-linecap: square"/>
   </g>
   <g id="text_10">
    <!-- Pi-Related Posts Over Time (n=41) -->
    <g transform="translate(311.105625 16.318125) scale(0.12 -0.12)">
     <defs>
      <path id="DejaVuSerif-Bold-50" d="M 300 0 
L 300 378 
L 897 378 
L 897 4288 
L 300 4288 
L 300 4666 
L 2956 4666 
Q 3734 4666 4193 4295 
Q 4653 3925 4653 3303 
Q 4653 2678 4192 2304 
Q 3731 1931 2956 1931 
L 2100 1931 
L 2100 378 
L 2853 378 
L 2853 0 
L 300 0 
z
M 2100 2309 
L 2450 2309 
Q 2856 2309 3098 2579 
Q 3341 2850 3341 3303 
Q 3341 3753 3100 4020 
Q 2859 4288 2450 4288 
L 2100 4288 
L 2100 2309 
z
" transform="scale(0.015625)"/>
      <path id="DejaVuSerif-Bold-69" d="M 588 4263 
Q 588 4516 763 4689 
Q 938 4863 1191 4863 
Q 1438 4863 1611 4689 
Q 1784 4516 1784 4263 
Q 1784 4016 1611 3842 
Q 1438 3669 1191 3669 
Q 938 3669 763 3841 
Q 588 4013 588 4263 
z
M 1797 378 
L 2272 378 
L 2272 0 
L 219 0 
L 219 378 
L 691 378 
L 691 2944 
L 219 2944 
L 219 3322 
L 1797 3322 
L 1797 378 
z
" transform="scale(0.015625)"/>
      <path id="DejaVuSerif-Bold-2d" d="M 347 2138 
L 2309 2138 
L 2309 1294 
L 347 1294 
L 347 2138 
z
" transform="scale(0.015625)"/>
      <path id="DejaVuSerif-Bold-52" d="M 3397 2278 
Q 3675 2238 3865 2094 
Q 4056 1950 4197 1678 
L 4878 378 
L 5356 378 
L 5356 0 
L 3822 0 
L 3078 1409 
Q 2863 1847 2711 1967 
Q 2559 2088 2291 2088 
L 2100 2088 
L 2100 378 
L 2700 378 
L 2700 0 
L 300 0 
L 300 378 
L 897 378 
L 897 4288 
L 300 4288 
L 300 4666 
L 2963 4666 
Q 3775 4666 4217 4339 
Q 4659 4013 4659 3413 
Q 4659 2925 4345 2642 
Q 4031 2359 3397 2278 
z
M 2100 2463 
L 2509 2463 
Q 2947 2463 3183 2700 
Q 3419 2938 3419 3378 
Q 3419 3819 3183 4053 
Q 2947 4288 2509 4288 
L 2100 4288 
L 2100 2463 
z
" transform="scale(0.015625)"/>
      <path id="DejaVuSerif-Bold-65" d="M 2566 1875 
Q 2566 2531 2444 2795 
Q 2322 3059 2028 3059 
Q 1744 3059 1620 2800 
Q 1497 2541 1497 1931 
L 1497 1875 
L 2566 1875 
z
M 3781 1503 
L 1497 1503 
L 1497 1478 
Q 1497 834 1690 548 
Q 1884 263 2316 263 
Q 2675 263 2897 453 
Q 3119 644 3181 1006 
L 3700 1006 
Q 3566 441 3166 175 
Q 2766 -91 2047 -91 
Q 1184 -91 723 364 
Q 263 819 263 1663 
Q 263 2488 734 2950 
Q 1206 3413 2047 3413 
Q 2872 3413 3312 2927 
Q 3753 2441 3781 1503 
z
" transform="scale(0.015625)"/>
      <path id="DejaVuSerif-Bold-6c" d="M 1797 378 
L 2272 378 
L 2272 0 
L 219 0 
L 219 378 
L 691 378 
L 691 4488 
L 219 4488 
L 219 4863 
L 1797 4863 
L 1797 378 
z
" transform="scale(0.015625)"/>
      <path id="DejaVuSerif-Bold-61" d="M 3525 2041 
L 3525 378 
L 4000 378 
L 4000 0 
L 2419 0 
L 2419 422 
Q 2200 159 1931 34 
Q 1663 -91 1319 -91 
Q 809 -91 536 182 
Q 263 456 263 966 
Q 263 1525 655 1803 
Q 1047 2081 1838 2081 
L 2419 2081 
L 2419 2278 
Q 2419 2681 2228 2873 
Q 2038 3066 1638 3066 
Q 1306 3066 1126 2930 
Q 947 2794 872 2484 
L 519 2484 
L 519 3200 
Q 816 3306 1134 3359 
Q 1453 3413 1806 3413 
Q 2697 3413 3111 3081 
Q 3525 2750 3525 2041 
z
M 2419 1044 
L 2419 1709 
L 2003 1709 
Q 1694 1709 1528 1540 
Q 1363 1372 1363 1056 
Q 1363 741 1483 584 
Q 1603 428 1850 428 
Q 2106 428 2262 597 
Q 2419 766 2419 1044 
z
" transform="scale(0.015625)"/>
      <path id="DejaVuSerif-Bold-74" d="M 634 2944 
L 153 2944 
L 153 3322 
L 634 3322 
L 634 4353 
L 1741 4353 
L 1741 3322 
L 2663 3322 
L 2663 2944 
L 1741 2944 
L 1741 909 
Q 1741 475 1809 369 
Q 1878 263 2059 263 
Q 2259 263 2356 397 
Q 2453 531 2459 813 
L 2925 813 
Q 2897 313 2651 111 
Q 2406 -91 1806 -91 
Q 1122 -91 878 123 
Q 634 338 634 909 
L 634 2944 
z
" transform="scale(0.015625)"/>
      <path id="DejaVuSerif-Bold-64" d="M 2747 1497 
L 2747 1825 
Q 2747 2406 2597 2665 
Q 2447 2925 2119 2925 
Q 1775 2925 1636 2651 
Q 1497 2378 1497 1663 
Q 1497 947 1637 672 
Q 1778 397 2119 397 
Q 2447 397 2597 656 
Q 2747 916 2747 1497 
z
M 3853 378 
L 4325 378 
L 4325 0 
L 2747 0 
L 2747 422 
Q 2606 163 2367 36 
Q 2128 -91 1778 -91 
Q 1072 -91 667 378 
Q 263 847 263 1663 
Q 263 2481 667 2947 
Q 1072 3413 1778 3413 
Q 2128 3413 2367 3286 
Q 2606 3159 2747 2900 
L 2747 4488 
L 2272 4488 
L 2272 4863 
L 3853 4863 
L 3853 378 
z
" transform="scale(0.015625)"/>
      <path id="DejaVuSerif-Bold-20" transform="scale(0.015625)"/>
      <path id="DejaVuSerif-Bold-6f" d="M 2138 263 
Q 2488 263 2630 563 
Q 2772 863 2772 1663 
Q 2772 2463 2631 2761 
Q 2491 3059 2138 3059 
Q 1784 3059 1640 2757 
Q 1497 2456 1497 1663 
Q 1497 869 1640 566 
Q 1784 263 2138 263 
z
M 2138 -91 
Q 1259 -91 761 376 
Q 263 844 263 1663 
Q 263 2484 761 2948 
Q 1259 3413 2138 3413 
Q 3019 3413 3516 2948 
Q 4013 2484 4013 1663 
Q 4013 844 3514 376 
Q 3016 -91 2138 -91 
z
" transform="scale(0.015625)"/>
      <path id="DejaVuSerif-Bold-73" d="M 300 97 
L 300 1025 
L 653 1025 
Q 697 653 931 458 
Q 1166 263 1569 263 
Q 1906 263 2086 380 
Q 2266 497 2266 716 
Q 2266 916 2152 1025 
Q 2038 1134 1709 1216 
L 1253 1331 
Q 738 1459 506 1698 
Q 275 1938 275 2344 
Q 275 2884 650 3148 
Q 1025 3413 1806 3413 
Q 2100 3413 2433 3364 
Q 2766 3316 3169 3213 
L 3169 2375 
L 2816 2375 
Q 2788 2716 2573 2887 
Q 2359 3059 1959 3059 
Q 1622 3059 1448 2951 
Q 1275 2844 1275 2638 
Q 1275 2469 1375 2372 
Q 1475 2275 1734 2209 
L 2188 2094 
Q 2841 1928 3091 1684 
Q 3341 1441 3341 1006 
Q 3341 444 2939 176 
Q 2538 -91 1691 -91 
Q 1381 -91 1034 -44 
Q 688 3 300 97 
z
" transform="scale(0.015625)"/>
      <path id="DejaVuSerif-Bold-4f" d="M 2784 288 
Q 3381 288 3672 791 
Q 3963 1294 3963 2328 
Q 3963 3366 3672 3869 
Q 3381 4372 2784 4372 
Q 2191 4372 1898 3864 
Q 1606 3356 1606 2328 
Q 1606 1303 1898 795 
Q 2191 288 2784 288 
z
M 2784 -91 
Q 1606 -91 937 553 
Q 269 1197 269 2328 
Q 269 3459 939 4104 
Q 1609 4750 2784 4750 
Q 3963 4750 4631 4106 
Q 5300 3463 5300 2328 
Q 5300 1197 4629 553 
Q 3959 -91 2784 -91 
z
" transform="scale(0.015625)"/>
      <path id="DejaVuSerif-Bold-76" d="M 1428 0 
L 250 2944 
L -116 2944 
L -116 3322 
L 1791 3322 
L 1791 2944 
L 1388 2944 
L 2228 844 
L 3066 2944 
L 2631 2944 
L 2631 3322 
L 3878 3322 
L 3878 2944 
L 3494 2944 
L 2316 0 
L 1428 0 
z
" transform="scale(0.015625)"/>
      <path id="DejaVuSerif-Bold-72" d="M 3438 3359 
L 3438 2369 
L 3084 2369 
Q 3066 2634 2941 2764 
Q 2816 2894 2578 2894 
Q 2216 2894 2006 2575 
Q 1797 2256 1797 1691 
L 1797 378 
L 2400 378 
L 2400 0 
L 219 0 
L 219 378 
L 691 378 
L 691 2944 
L 184 2944 
L 184 3322 
L 1797 3322 
L 1797 2731 
Q 1959 3078 2226 3245 
Q 2494 3413 2881 3413 
Q 2978 3413 3117 3398 
Q 3256 3384 3438 3359 
z
" transform="scale(0.015625)"/>
      <path id="DejaVuSerif-Bold-54" d="M 1159 0 
L 1159 378 
L 1778 378 
L 1778 4238 
L 500 4238 
L 500 3500 
L 72 3500 
L 72 4666 
L 4697 4666 
L 4697 3500 
L 4275 3500 
L 4275 4238 
L 2988 4238 
L 2988 378 
L 3609 378 
L 3609 0 
L 1159 0 
z
" transform="scale(0.015625)"/>
      <path id="DejaVuSerif-Bold-6d" d="M 3884 2778 
Q 4116 3109 4384 3261 
Q 4653 3413 5013 3413 
Q 5584 3413 5867 3089 
Q 6150 2766 6150 2113 
L 6150 378 
L 6625 378 
L 6625 0 
L 4647 0 
L 4647 378 
L 5044 378 
L 5044 1947 
Q 5044 2569 4948 2731 
Q 4853 2894 4594 2894 
Q 4300 2894 4137 2667 
Q 3975 2441 3975 2022 
L 3975 378 
L 4372 378 
L 4372 0 
L 2472 0 
L 2472 378 
L 2869 378 
L 2869 1947 
Q 2869 2569 2772 2731 
Q 2675 2894 2419 2894 
Q 2122 2894 1959 2667 
Q 1797 2441 1797 2022 
L 1797 378 
L 2194 378 
L 2194 0 
L 219 0 
L 219 378 
L 691 378 
L 691 2944 
L 219 2944 
L 219 3322 
L 1797 3322 
L 1797 2853 
Q 1991 3144 2241 3278 
Q 2491 3413 2834 3413 
Q 3241 3413 3494 3258 
Q 3747 3103 3884 2778 
z
" transform="scale(0.015625)"/>
      <path id="DejaVuSerif-Bold-28" d="M 2694 -997 
Q 1641 -606 1122 122 
Q 603 850 603 1931 
Q 603 3013 1115 3731 
Q 1628 4450 2694 4863 
L 2694 4488 
Q 2200 4188 1983 3598 
Q 1766 3009 1766 1931 
Q 1766 856 1983 267 
Q 2200 -322 2694 -622 
L 2694 -997 
z
" transform="scale(0.015625)"/>
      <path id="DejaVuSerif-Bold-6e" d="M 219 0 
L 219 378 
L 691 378 
L 691 2944 
L 219 2944 
L 219 3322 
L 1797 3322 
L 1797 2853 
Q 1997 3150 2253 3281 
Q 2509 3413 2900 3413 
Q 3459 3413 3745 3083 
Q 4031 2753 4031 2113 
L 4031 378 
L 4506 378 
L 4506 0 
L 2522 0 
L 2522 378 
L 2925 378 
L 2925 2144 
Q 2925 2566 2817 2730 
Q 2709 2894 2444 2894 
Q 2109 2894 1953 2648 
Q 1797 2403 1797 1869 
L 1797 378 
L 2203 378 
L 2203 0 
L 219 0 
z
" transform="scale(0.015625)"/>
      <path id="DejaVuSerif-Bold-3d" d="M 678 1650 
L 4684 1650 
L 4684 941 
L 678 941 
L 678 1650 
z
M 678 3072 
L 4684 3072 
L 4684 2363 
L 678 2363 
L 678 3072 
z
" transform="scale(0.015625)"/>
      <path id="DejaVuSerif-Bold-34" d="M 4084 0 
L 1516 0 
L 1516 378 
L 2209 378 
L 2209 1228 
L 263 1228 
L 263 1588 
L 2216 4750 
L 3391 4750 
L 3391 1631 
L 4191 1631 
L 4191 1228 
L 3391 1228 
L 3391 378 
L 4084 378 
L 4084 0 
z
M 2209 1631 
L 2209 3897 
L 819 1631 
L 2209 1631 
z
" transform="scale(0.015625)"/>
      <path id="DejaVuSerif-Bold-31" d="M 878 0 
L 878 378 
L 1753 378 
L 1753 4153 
L 781 3578 
L 781 4044 
L 1953 4750 
L 2938 4750 
L 2938 378 
L 3816 378 
L 3816 0 
L 878 0 
z
" transform="scale(0.015625)"/>
      <path id="DejaVuSerif-Bold-29" d="M 325 -997 
L 325 -622 
Q 819 -322 1036 267 
Q 1253 856 1253 1931 
Q 1253 3009 1036 3598 
Q 819 4188 325 4488 
L 325 4863 
Q 1391 4450 1905 3731 
Q 2419 3013 2419 1931 
Q 2419 850 1898 122 
Q 1378 -606 325 -997 
z
" transform="scale(0.015625)"/>
     </defs>
     <use xlink:href="#DejaVuSerif-Bold-50"/>
     <use xlink:href="#DejaVuSerif-Bold-69" x="75.195312"/>
     <use xlink:href="#DejaVuSerif-Bold-2d" x="113.183594"/>
     <use xlink:href="#DejaVuSerif-Bold-52" x="154.6875"/>
     <use xlink:href="#DejaVuSerif-Bold-65" x="237.792969"/>
     <use xlink:href="#DejaVuSerif-Bold-6c" x="301.416016"/>
     <use xlink:href="#DejaVuSerif-Bold-61" x="339.404297"/>
     <use xlink:href="#DejaVuSerif-Bold-74" x="404.199219"/>
     <use xlink:href="#DejaVuSerif-Bold-65" x="450.390625"/>
     <use xlink:href="#DejaVuSerif-Bold-64" x="514.013672"/>
     <use xlink:href="#DejaVuSerif-Bold-20" x="583.935547"/>
     <use xlink:href="#DejaVuSerif-Bold-50" x="618.75"/>
     <use xlink:href="#DejaVuSerif-Bold-6f" x="691.320312"/>
     <use xlink:href="#DejaVuSerif-Bold-73" x="758.019531"/>
     <use xlink:href="#DejaVuSerif-Bold-74" x="814.318359"/>
     <use xlink:href="#DejaVuSerif-Bold-73" x="860.509766"/>
     <use xlink:href="#DejaVuSerif-Bold-20" x="916.808594"/>
     <use xlink:href="#DejaVuSerif-Bold-4f" x="951.623047"/>
     <use xlink:href="#DejaVuSerif-Bold-76" x="1038.732422"/>
     <use xlink:href="#DejaVuSerif-Bold-65" x="1096.837891"/>
     <use xlink:href="#DejaVuSerif-Bold-72" x="1160.460938"/>
     <use xlink:href="#DejaVuSerif-Bold-20" x="1213.146484"/>
     <use xlink:href="#DejaVuSerif-Bold-54" x="1247.960938"/>
     <use xlink:href="#DejaVuSerif-Bold-69" x="1322.375"/>
     <use xlink:href="#DejaVuSerif-Bold-6d" x="1360.363281"/>
     <use xlink:href="#DejaVuSerif-Bold-65" x="1466.173828"/>
     <use xlink:href="#DejaVuSerif-Bold-20" x="1529.796875"/>
     <use xlink:href="#DejaVuSerif-Bold-28" x="1564.611328"/>
     <use xlink:href="#DejaVuSerif-Bold-6e" x="1611.925781"/>
     <use xlink:href="#DejaVuSerif-Bold-3d" x="1684.630859"/>
     <use xlink:href="#DejaVuSerif-Bold-34" x="1768.419922"/>
     <use xlink:href="#DejaVuSerif-Bold-31" x="1838"/>
     <use xlink:href="#DejaVuSerif-Bold-29" x="1907.580078"/>
    </g>
   </g>
  </g>
 </g>
 <defs>
  <clipPath id="pa50c8260b0">
   <rect x="7.2" y="22.318125" width="842.4" height="221.56"/>
  </clipPath>
 </defs>
</svg>
