<svg width="26" height="26" viewBox="0 0 26 26" version="1.1" xmlns="http://www.w3.org/2000/svg" xmlns:xlink="http://www.w3.org/1999/xlink">
<title></title>
<desc>Created using Figma</desc>
<g id="Canvas" transform="translate(7167 -8)">
<rect x="-7167" y="8" width="26" height="26" fill="#E5E5E5"/>
<g id="Group">
<g id="Services">
<g id="Rectangle 3">
<use xlink:href="#path0_fill" transform="translate(-8777 -49)" fill="#FFFFFF"/>
</g>
<g id="&#239;&#130;&#149;">
<use xlink:href="#path1_fill" transform="translate(-7167 7)" fill="#56CCF2"/>
</g>
</g>
</g>
</g>
<defs>
<path id="path0_fill" d="M 0 0L 1920 0L 1920 220L 0 220L 0 0Z"/>
<path id="path1_fill" d="M 25.1429 21.7143C 25.1429 21.5893 25.1429 21.4643 25.0893 21.3393C 24.9643 20.9643 24.0893 20.5714 23.7321 20.3929C 22.7143 19.8214 21.6786 19.2679 20.6786 18.6786C 20.2143 18.3929 19.6429 17.8571 19.0893 17.8571C 18 17.8571 16.4107 21.0893 15.4464 21.0893C 14.9643 21.0893 14.3393 20.6429 13.9107 20.3929C 10.6607 18.5893 8.41071 16.3393 6.60714 13.0893C 6.35714 12.6607 5.91071 12.0357 5.91071 11.5536C 5.91071 10.5893 9.14286 9 9.14286 7.91072C 9.14286 7.35714 8.60714 6.78572 8.32143 6.32143C 7.73214 5.32143 7.17857 4.28572 6.60714 3.26786C 6.42857 2.91072 6.03571 2.03572 5.66071 1.91072C 5.53571 1.85714 5.41071 1.85714 5.28571 1.85714C 4.64286 1.85714 3.39286 2.14286 2.80357 2.41072C 1.92857 2.78572 1.35714 3.78572 0.910714 4.58928C 0.339286 5.64286 0 6.71428 0 7.91072C 0 9.57143 0.678571 11.0714 1.23214 12.5893C 1.625 13.6786 2.10714 14.7321 2.71429 15.7143C 4.58929 18.75 8.25 22.4107 11.2857 24.2857C 12.2679 24.8929 13.3214 25.375 14.4107 25.7679C 15.9286 26.3214 17.4286 27 19.0893 27C 20.2857 27 21.3571 26.6607 22.4107 26.0893C 23.2143 25.6429 24.2143 25.0714 24.5893 24.1964C 24.8571 23.6071 25.1429 22.3571 25.1429 21.7143Z"/>
</defs>
</svg>
