<svg width="353" height="63" viewBox="0 0 353 63" version="1.1" xmlns="http://www.w3.org/2000/svg" xmlns:xlink="http://www.w3.org/1999/xlink">
<title>Logo</title>
<desc>Created using Figma</desc>
<g id="Canvas" transform="translate(8696 -34)">
<g id="Logo">
<g id="JOHN D. COOK">
<use xlink:href="#path0_fill" transform="translate(-8696 24)" fill="#333333"/>
</g>
<g id="CONSULTING">
<use xlink:href="#path1_fill" transform="translate(-8693 78)" fill="#333333"/>
</g>
</g>
</g>
<defs>
<path id="path0_fill" d="M 10.206 40.42C 13.398 40.42 16.044 39.496 17.85 37.69C 19.614 35.926 20.622 33.322 20.622 29.836L 20.622 10.6L 13.986 10.6L 13.986 29.542C 13.986 32.944 12.474 34.414 10.038 34.414C 7.98 34.414 6.342 33.322 4.662 31.474L 0.588 36.01C 2.604 38.404 5.628 40.42 10.206 40.42ZM 44.035 40.504C 53.107 40.504 59.701 33.658 59.701 25.3L 59.701 25.216C 59.701 16.858 53.191 10.096 44.119 10.096C 35.047 10.096 28.453 16.942 28.453 25.3L 28.453 25.384C 28.453 33.742 34.963 40.504 44.035 40.504ZM 44.119 34.54C 38.911 34.54 35.215 30.34 35.215 25.3L 35.215 25.216C 35.215 20.176 38.827 16.06 44.035 16.06C 49.243 16.06 52.939 20.26 52.939 25.3L 52.939 25.384C 52.939 30.424 49.327 34.54 44.119 34.54ZM 67.9586 40L 74.4266 40L 74.4266 28.198L 86.3546 28.198L 86.3546 40L 92.8226 40L 92.8226 10.6L 86.3546 10.6L 86.3546 22.234L 74.4266 22.234L 74.4266 10.6L 67.9586 10.6L 67.9586 40ZM 102.389 40L 108.773 40L 108.773 21.31L 123.011 40L 128.513 40L 128.513 10.6L 122.129 10.6L 122.129 28.702L 108.353 10.6L 102.389 10.6L 102.389 40ZM 153.202 40L 164.668 40C 173.908 40 180.292 33.574 180.292 25.3L 180.292 25.216C 180.292 16.942 173.908 10.6 164.668 10.6L 153.202 10.6L 153.202 40ZM 164.668 16.438C 169.96 16.438 173.53 20.092 173.53 25.3L 173.53 25.384C 173.53 30.592 169.96 34.162 164.668 34.162L 159.67 34.162L 159.67 16.438L 164.668 16.438ZM 185.97 40L 192.774 40L 192.774 33.28L 185.97 33.28L 185.97 40ZM 230.319 40.504C 235.989 40.504 239.349 38.488 242.373 35.254L 238.257 31.096C 235.947 33.196 233.889 34.54 230.529 34.54C 225.489 34.54 222.003 30.34 222.003 25.3L 222.003 25.216C 222.003 20.176 225.573 16.06 230.529 16.06C 233.469 16.06 235.779 17.32 238.047 19.378L 242.163 14.632C 239.433 11.944 236.115 10.096 230.571 10.096C 221.541 10.096 215.241 16.942 215.241 25.3L 215.241 25.384C 215.241 33.826 221.667 40.504 230.319 40.504ZM 263.531 40.504C 272.603 40.504 279.197 33.658 279.197 25.3L 279.197 25.216C 279.197 16.858 272.687 10.096 263.615 10.096C 254.543 10.096 247.949 16.942 247.949 25.3L 247.949 25.384C 247.949 33.742 254.459 40.504 263.531 40.504ZM 263.615 34.54C 258.407 34.54 254.711 30.34 254.711 25.3L 254.711 25.216C 254.711 20.176 258.323 16.06 263.531 16.06C 268.739 16.06 272.435 20.26 272.435 25.3L 272.435 25.384C 272.435 30.424 268.823 34.54 263.615 34.54ZM 301.735 40.504C 310.807 40.504 317.401 33.658 317.401 25.3L 317.401 25.216C 317.401 16.858 310.891 10.096 301.819 10.096C 292.747 10.096 286.153 16.942 286.153 25.3L 286.153 25.384C 286.153 33.742 292.663 40.504 301.735 40.504ZM 301.819 34.54C 296.611 34.54 292.915 30.34 292.915 25.3L 292.915 25.216C 292.915 20.176 296.527 16.06 301.735 16.06C 306.943 16.06 310.639 20.26 310.639 25.3L 310.639 25.384C 310.639 30.424 307.027 34.54 301.819 34.54ZM 325.658 40L 332.126 40L 332.126 31.012L 335.528 27.484L 344.642 40L 352.412 40L 339.896 23.074L 351.908 10.6L 343.97 10.6L 332.126 23.452L 332.126 10.6L 325.658 10.6L 325.658 40Z"/>
<path id="path1_fill" d="M 9.218 18.264C 12.012 18.264 13.772 17.186 15.378 15.558L 14.234 14.436C 12.76 15.844 11.374 16.658 9.262 16.658C 5.874 16.658 3.3 13.864 3.3 10.3L 3.3 10.256C 3.3 6.714 5.852 3.942 9.262 3.942C 11.352 3.942 12.804 4.822 14.102 6.054L 15.29 4.778C 13.75 3.326 12.078 2.336 9.284 2.336C 4.752 2.336 1.496 5.944 1.496 10.3L 1.496 10.344C 1.496 14.766 4.774 18.264 9.218 18.264ZM 47.3605 18.264C 52.0465 18.264 55.2365 14.546 55.2365 10.3L 55.2365 10.256C 55.2365 6.01 52.0905 2.336 47.4045 2.336C 42.7185 2.336 39.5285 6.054 39.5285 10.3L 39.5285 10.344C 39.5285 14.59 42.6745 18.264 47.3605 18.264ZM 47.4045 16.658C 43.8845 16.658 41.3325 13.798 41.3325 10.3L 41.3325 10.256C 41.3325 6.758 43.8405 3.942 47.3605 3.942C 50.8805 3.942 53.4325 6.802 53.4325 10.3L 53.4325 10.344C 53.4325 13.842 50.9245 16.658 47.4045 16.658ZM 81.1219 18L 82.8159 18L 82.8159 5.372L 92.7599 18L 94.1459 18L 94.1459 2.6L 92.4519 2.6L 92.4519 14.942L 82.7499 2.6L 81.1219 2.6L 81.1219 18ZM 126.003 18.22C 129.061 18.22 131.261 16.504 131.261 13.864L 131.261 13.82C 131.261 11.466 129.677 10.212 126.245 9.464C 122.857 8.738 122.065 7.924 122.065 6.472L 122.065 6.428C 122.065 5.042 123.341 3.942 125.343 3.942C 126.927 3.942 128.357 4.448 129.787 5.614L 130.799 4.272C 129.237 3.018 127.631 2.38 125.387 2.38C 122.461 2.38 120.327 4.162 120.327 6.582L 120.327 6.626C 120.327 9.156 121.955 10.3 125.497 11.07C 128.731 11.752 129.501 12.566 129.501 13.996L 129.501 14.04C 129.501 15.558 128.137 16.658 126.069 16.658C 123.935 16.658 122.395 15.932 120.789 14.48L 119.711 15.756C 121.559 17.406 123.561 18.22 126.003 18.22ZM 163.175 18.242C 167.025 18.242 169.599 15.91 169.599 11.422L 169.599 2.6L 167.861 2.6L 167.861 11.554C 167.861 14.92 166.057 16.636 163.219 16.636C 160.271 16.636 158.511 14.766 158.511 11.444L 158.511 2.6L 156.773 2.6L 156.773 11.554C 156.773 15.91 159.369 18.242 163.175 18.242ZM 195.928 18L 206.334 18L 206.334 16.394L 197.666 16.394L 197.666 2.6L 195.928 2.6L 195.928 18ZM 233.648 18L 235.408 18L 235.408 4.206L 240.578 4.206L 240.578 2.6L 228.478 2.6L 228.478 4.206L 233.648 4.206L 233.648 18ZM 266.218 18L 267.956 18L 267.956 2.6L 266.218 2.6L 266.218 18ZM 294.686 18L 296.38 18L 296.38 5.372L 306.324 18L 307.71 18L 307.71 2.6L 306.016 2.6L 306.016 14.942L 296.314 2.6L 294.686 2.6L 294.686 18ZM 341.437 18.264C 344.033 18.264 346.189 17.186 347.619 15.91L 347.619 9.772L 341.261 9.772L 341.261 11.334L 345.947 11.334L 345.947 15.162C 344.891 16.02 343.263 16.702 341.503 16.702C 337.763 16.702 335.409 13.974 335.409 10.3L 335.409 10.256C 335.409 6.824 337.851 3.942 341.261 3.942C 343.439 3.942 344.759 4.668 345.947 5.702L 347.069 4.382C 345.529 3.084 343.923 2.336 341.327 2.336C 336.707 2.336 333.605 6.076 333.605 10.3L 333.605 10.344C 333.605 14.744 336.597 18.264 341.437 18.264Z"/>
</defs>
</svg>
